<svg xmlns="http://www.w3.org/2000/svg" xmlns:xlink="http://www.w3.org/1999/xlink" width="32" height="32" viewBox="0 0 32 32">
  <defs>
    <clipPath id="clip-path">
      <rect id="Rectangle_151845" data-name="Rectangle 151845" width="32" height="32" rx="4" transform="translate(91 1)" fill="#953dac"/>
    </clipPath>
  </defs>
  <g id="Group_193913" data-name="Group 193913" transform="translate(-91 -1)">
    <rect id="Rectangle_151844" data-name="Rectangle 151844" width="32" height="32" rx="4" transform="translate(91 1)"/>
    <path id="kafka" d="M11.653,13.293a3.119,3.119,0,0,0-2.346,1.066l-1.47-1.041a3.966,3.966,0,0,0,.008-2.726l1.467-1.03a3.121,3.121,0,1,0-.657-1.18L7.187,9.413a4.039,4.039,0,0,0-2.5-1.454V6.19a3.134,3.134,0,1,0-1.343-.014V7.968a4.036,4.036,0,0,0,.028,7.957v1.892a3.129,3.129,0,1,0,1.343,0V15.925a4.04,4.04,0,0,0,2.46-1.431l1.48,1.048a3.128,3.128,0,1,0,3-2.249Zm0-7.316a1.517,1.517,0,1,1-1.517,1.517,1.519,1.519,0,0,1,1.517-1.517ZM2.524,3.129A1.517,1.517,0,1,1,4.041,4.646,1.519,1.519,0,0,1,2.524,3.129ZM5.558,20.871a1.517,1.517,0,1,1-1.517-1.517A1.519,1.519,0,0,1,5.558,20.871ZM4.041,14.06a2.116,2.116,0,1,1,2.116-2.116A2.118,2.118,0,0,1,4.041,14.06Zm7.612,3.879a1.517,1.517,0,1,1,1.517-1.517A1.519,1.519,0,0,1,11.653,17.939Z" transform="translate(99.609 5)" fill="#fff"/>
  </g>
</svg>
