<svg xmlns="http://www.w3.org/2000/svg" width="32" height="32" viewBox="0 0 32 32">
  <g id="Group_193908" data-name="Group 193908" transform="translate(-91 -1)">
    <rect id="Rectangle_151844" data-name="Rectangle 151844" width="32" height="32" rx="4" transform="translate(91 1)" fill="#0a5fd9"/>
    <g id="confluence-1" transform="translate(94.958 4.889)">
      <path id="Path_193373" data-name="Path 193373" d="M.893,129.269c-.248.4-.528.876-.749,1.25a.754.754,0,0,0-.079.56.747.747,0,0,0,.12.262.767.767,0,0,0,.209.2L5.367,134.6a.764.764,0,0,0,.583.093.774.774,0,0,0,.273-.128.752.752,0,0,0,.2-.223c.2-.334.455-.766.728-1.227,1.971-3.232,3.968-2.837,7.537-1.14l4.932,2.339a.764.764,0,0,0,1.029-.382l2.368-5.338a.764.764,0,0,0,.02-.573.765.765,0,0,0-.384-.427c-1.04-.489-3.109-1.453-4.964-2.36C10.942,121.983,5.25,122.2.893,129.269Z" transform="translate(0 -111.559)" fill="#fff"/>
      <path id="Path_193374" data-name="Path 193374" d="M32.443,5.574c.25-.4.531-.875.749-1.249a.77.77,0,0,0,.1-.279.756.756,0,0,0-.016-.294.766.766,0,0,0-.346-.463L27.961.225A.762.762,0,0,0,27.679.12.765.765,0,0,0,26.9.483c-.2.334-.455.766-.728,1.227C24.2,4.957,22.218,4.562,18.646,2.865L13.718.526A.777.777,0,0,0,13.426.45a.764.764,0,0,0-.737.44L10.321,6.243a.765.765,0,0,0,.129.826.76.76,0,0,0,.234.176c1.044.49,3.113,1.453,4.964,2.361,6.729,3.254,12.44,3.04,16.794-4.032Z" transform="translate(-9.254)" fill="#fff"/>
    </g>
  </g>
</svg>
