<svg xmlns="http://www.w3.org/2000/svg" xmlns:xlink="http://www.w3.org/1999/xlink" width="32" height="32" viewBox="0 0 32 32">
  <defs>
    <clipPath id="clip-path">
      <rect id="Rectangle_151846" data-name="Rectangle 151846" width="32" height="32" rx="4" transform="translate(91 1)" fill="#dab92d"/>
    </clipPath>
    <clipPath id="clip-path-2">
      <rect id="Rectangle_151850" data-name="Rectangle 151850" width="32" height="32" rx="4" transform="translate(91 1)" fill="#b3b3b3"/>
    </clipPath>
    <clipPath id="clip-path-3">
      <path id="Path_193359" data-name="Path 193359" d="M617.879,629.7c-.121-.243.4-.381.537-.4.208-.052.779-.035.866.208.086.226-.416.364-.537.381a1.655,1.655,0,0,1-.242.017c-.237,0-.525-.046-.624-.207m.312-1c-.433.069-1.178.329-1.195.866a.568.568,0,0,0,.069.295c.329.5,1.316.554,1.836.485.433-.07,1.247-.364,1.264-.884,0-.052-.017-.1-.017-.156a1.029,1.029,0,0,0-.71-.572,2.752,2.752,0,0,0-.688-.083,3.283,3.283,0,0,0-.559.048m4.52,1.109c-.156.086-.4.208-.485.242a2.139,2.139,0,0,1-.346.1,4.222,4.222,0,0,1,.484-.242c.052-.017.225-.069.347-.1m-1.074-.918c-.035-.277.45-.554.658-.641.138-.052.641-.173.658.1,0,.242-.45.519-.641.589a1.306,1.306,0,0,1-.421.079c-.129,0-.24-.032-.255-.132m.537-1.264a2.72,2.72,0,0,0-1.039.657.944.944,0,0,0-.329.849c.086.467.745.467,1.16.4v.156c-.26.121-.953.45-.918.727.052.329,1.074-.069,1.212-.121a3.946,3.946,0,0,0,1.2-.728h.017a.243.243,0,0,0,0-.156c-.087-.19-.5-.087-.745-.017v-.138c.4-.242.987-.693,1-1.178a.453.453,0,0,0-.087-.294.742.742,0,0,0-.684-.312,2.376,2.376,0,0,0-.788.156m3.083.035a1.315,1.315,0,0,1,.606-.762c.1-.069.381-.225.329.017a1.617,1.617,0,0,1-.589.727.848.848,0,0,1-.284.113c-.046,0-.074-.024-.062-.1m.554-1.386a2.646,2.646,0,0,0-1.281,1.645.5.5,0,0,0,.1.363c.242.225.745-.017.969-.156a3.4,3.4,0,0,0,1.178-1.489.478.478,0,0,0-.087-.5.4.4,0,0,0-.269-.091,1.2,1.2,0,0,0-.614.229M612.3,627.426a.363.363,0,0,1,.242-.606,1.066,1.066,0,0,1,1.022.485c.173.294.035.537-.295.589-.025,0-.051,0-.077,0a1.141,1.141,0,0,1-.892-.471m3.706-.727c-.174-.4.173-.727.536-.831a.94.94,0,0,1,1.108.433c.156.4-.208.71-.554.8a1.122,1.122,0,0,1-.247.027.938.938,0,0,1-.843-.425m.208-1.679a1.462,1.462,0,0,0-1.23,1.524c-.277.069-.537.139-.814.19a2.228,2.228,0,0,0-1.974-.693.937.937,0,0,0-.606,1.541,2.339,2.339,0,0,0,2.009.936.957.957,0,0,0,.952-1.039c.26-.069.537-.121.814-.19a2.258,2.258,0,0,0,2.008.52,1.656,1.656,0,0,0,1.281-1.247,1,1,0,0,0-.051-.554,1.773,1.773,0,0,0-1.76-1.075,2.247,2.247,0,0,0-.63.088m4.883,1.056c-.1-.433.312-.831.693-.97.364-.122.814-.035.884.4a.961.961,0,0,1-.675.936,1.021,1.021,0,0,1-.3.046.552.552,0,0,1-.6-.41m.485-1.87a1.973,1.973,0,0,0-1.455,2.147,1.478,1.478,0,0,0,2.026.814,2.081,2.081,0,0,0,1.42-1.957,1.219,1.219,0,0,0-.311-.676,1.377,1.377,0,0,0-1.054-.433,2,2,0,0,0-.626.1m6.511-1.333a1.357,1.357,0,0,1,.364-.918c.173-.138.156.225.156.312a1.571,1.571,0,0,1-.329.866.157.157,0,0,1-.1.051c-.095,0-.095-.215-.095-.311m.242-1.68a2.63,2.63,0,0,0-.8,1.94c-.017.26.017.727.312.831a.508.508,0,0,0,.484-.174h.018a3.505,3.505,0,0,0,.675-1.766c.017-.277-.018-.814-.347-.918a.3.3,0,0,0-.081-.011.447.447,0,0,0-.265.1M615.4,622.578a.846.846,0,0,1,.762-.987.981.981,0,0,1,1.073.831.865.865,0,0,1-.8.987l-.066,0a.985.985,0,0,1-.973-.833m.641-2.078a1.893,1.893,0,0,0-1.663,2.182,2.15,2.15,0,0,0,2.2,1.732,1.865,1.865,0,0,0,1.731-2.113,2.082,2.082,0,0,0-2.048-1.813,2.024,2.024,0,0,0-.22.012m-5.022,1.593a.922.922,0,0,1,.45-1.022c.381-.156.693.191.763.554a.882.882,0,0,1-.485,1.039.486.486,0,0,1-.148.024c-.3,0-.519-.311-.579-.6m.26-1.94a2.064,2.064,0,0,0-.969,2.165,1.6,1.6,0,0,0,1.143,1.333,1.126,1.126,0,0,0,.536-.017,1.932,1.932,0,0,0,1.109-2.286c-.017-.069-.035-.138-.052-.225a1.417,1.417,0,0,0-.156-.329,1.342,1.342,0,0,0-1.149-.733,1.228,1.228,0,0,0-.462.092m13.958,4.658a1.12,1.12,0,0,1,.572-1c.311-.156.52,0,.536.329a1.178,1.178,0,0,1-.554.953.57.57,0,0,1-.259.074c-.167,0-.283-.115-.295-.352m-.78-4.33a.926.926,0,0,1,.485-1.073c.4-.121.693.242.762.589a.955.955,0,0,1-.467,1.056.527.527,0,0,1-.193.038.675.675,0,0,1-.586-.61m.243-2.043a1.94,1.94,0,0,0-1.126,2.321,1.476,1.476,0,0,0,1.455,1.316l.208,1.143a2.352,2.352,0,0,0-.814,1.888c.052.849.762,1.091,1.455.71a2.566,2.566,0,0,0,1.126-1.957c-.018-.623-.381-1.143-1.022-1.022l-.19-1.091a2.2,2.2,0,0,0,.623-1.974,1.674,1.674,0,0,0-1.142-1.368,1.136,1.136,0,0,0-.2-.018,1.4,1.4,0,0,0-.369.053M607.7,619.894c-.035-.226-.017-.762.208-.9.26-.138.416.4.433.554.052.225.052.831-.225.917a.156.156,0,0,1-.062.013c-.207,0-.338-.458-.354-.584m.052-1.749c-.52.346-.589,1.385-.5,1.94.069.432.38,1.3.935,1.3a.48.48,0,0,0,.156-.017,1.076,1.076,0,0,0,.589-.745,2.751,2.751,0,0,0,.035-1.3c-.069-.451-.329-1.247-.9-1.265a.6.6,0,0,0-.311.087m19.707,1.316c-.035-.225-.035-.8.226-.9.208-.069.346.433.381.554.035.208.017.727-.208.849a.147.147,0,0,1-.078.024c-.183,0-.306-.4-.321-.526m1.489-.606a2.453,2.453,0,0,1-.035-.537c.035.121.069.295.087.364a4.137,4.137,0,0,1,.017.519,1.994,1.994,0,0,1-.069-.346m-.225-1.385c-.225.087-.208.693-.19.969l-.156.052c-.138-.381-.467-.918-.918-.779a1.031,1.031,0,0,0-.571.71,3.034,3.034,0,0,0-.035,1.247c.069.416.329,1.178.866,1.195a.534.534,0,0,0,.311-.086c.416-.26.52-1.039.5-1.507l.1-.051c.052.294.19.883.433.848a.13.13,0,0,0,.121-.087,3.138,3.138,0,0,0,.035-1.333c-.016-.163-.156-1.189-.448-1.189a.141.141,0,0,0-.054.012m-8.572,4.329a.969.969,0,0,1,.658-1.177.84.84,0,0,1,1.091.624.994.994,0,0,1-.641,1.16.925.925,0,0,1-.283.045.837.837,0,0,1-.824-.651m-6.13-3.411a1.015,1.015,0,0,1,.641-1.178.885.885,0,0,1,1.125.606,1.014,1.014,0,0,1-.675,1.2.917.917,0,0,1-.252.036.859.859,0,0,1-.839-.659m4.745-1.42a.864.864,0,0,1,.624-1.091,1.016,1.016,0,0,1,1.178.641.861.861,0,0,1-.606,1.109.957.957,0,0,1-.253.034.992.992,0,0,1-.942-.692m.329-2.061a1.884,1.884,0,0,0-1.454,1.818c-.346.1-.693.208-1.021.294a1.877,1.877,0,0,0-2.2-.779,2.131,2.131,0,0,0-1.368,2.442,1.866,1.866,0,0,0,2.355,1.368,2.079,2.079,0,0,0,1.489-1.992c.346-.1.693-.208,1.039-.294a2.136,2.136,0,0,0,1.783.987c.1.346.208.693.295,1.039a2.1,2.1,0,0,0-.918,2.321,1.889,1.889,0,0,0,2.425,1.281,2.141,2.141,0,0,0,1.351-2.442,1.871,1.871,0,0,0-1.836-1.454c-.086-.346-.19-.693-.277-1.039a1.845,1.845,0,0,0,.779-2.182,2.152,2.152,0,0,0-2.009-1.415,2.012,2.012,0,0,0-.433.047m4.157,1.074c-.121-.364-.035-.832.4-.9a1,1,0,0,1,.936.693c.1.329.052.814-.364.884a.605.605,0,0,1-.141.017.976.976,0,0,1-.828-.692m.1-1.784a1.2,1.2,0,0,0-.675.294,1.608,1.608,0,0,0-.329,1.7,1.978,1.978,0,0,0,2.147,1.454,1.491,1.491,0,0,0,.814-2.026,2.124,2.124,0,0,0-1.8-1.429,1.361,1.361,0,0,0-.16.009m-14.079,1.922a1.145,1.145,0,0,1,.485-.97.36.36,0,0,1,.589.277,1.023,1.023,0,0,1-.485,1,.476.476,0,0,1-.223.061.39.39,0,0,1-.366-.373m3.6-1.438a.522.522,0,0,1-.243-.329c0-.035-.017-.087-.017-.121a1.032,1.032,0,0,1,.606-.866c.329-.139.8-.121.918.277a.243.243,0,0,1,.035.121v.035a.962.962,0,0,1-.606.866.943.943,0,0,1-.364.086h-.017a.672.672,0,0,1-.312-.069m.121-2.026a2.223,2.223,0,0,0-1.247,1.628c-.26.121-.5.242-.762.363a.968.968,0,0,0-1.369-.208,2.431,2.431,0,0,0-.987,2.009.943.943,0,0,0,1.437.814,2.206,2.206,0,0,0,1.109-1.818c.243-.122.485-.225.745-.329a1.179,1.179,0,0,0,.727.554h.035a1.793,1.793,0,0,0,1.16-.121,2,2,0,0,0,1.3-2.078l-.052-.155v-.052c-.017,0-.017-.017-.017-.035a1.244,1.244,0,0,0-1.236-.755,2.079,2.079,0,0,0-.842.183m4.554.156c-.121-.4.242-.693.589-.763a.979.979,0,0,1,1.056.468c.156.4-.19.71-.572.8a1.093,1.093,0,0,1-.189.016.9.9,0,0,1-.885-.518m.363-1.473a1.646,1.646,0,0,0-1.368,1.161,1.193,1.193,0,0,0,.017.554,1.839,1.839,0,0,0,1.714,1.178,1.888,1.888,0,0,0,.623-.052,1.542,1.542,0,0,0,1.3-1.108,1.378,1.378,0,0,0-.069-.745,2.016,2.016,0,0,0-1.849-1.018,2.167,2.167,0,0,0-.368.031m-8.208,1.385a1.6,1.6,0,0,1,.589-.727c.069-.035.381-.225.346-.017a1.38,1.38,0,0,1-.624.779.567.567,0,0,1-.245.1c-.055,0-.089-.034-.067-.137m.589-1.194a3.308,3.308,0,0,0-1.178,1.454V613a.477.477,0,0,0,.086.5c.242.208.658.018.866-.12a2.679,2.679,0,0,0,1.3-1.68.51.51,0,0,0-.1-.346.4.4,0,0,0-.272-.092,1.4,1.4,0,0,0-.7.265m17.664,3.619a1.939,1.939,0,0,1-.121-.346,3.113,3.113,0,0,1,.242.484c.017.052.087.225.121.347a1.784,1.784,0,0,1-.242-.485m-1.593.226c-.052-.138-.173-.641.087-.659.259,0,.52.451.605.659.035.121.156.623-.069.657l-.028,0c-.267,0-.528-.459-.594-.659m-.381-2.667a1.58,1.58,0,0,1-.779-.606c-.052-.122-.225-.381.035-.329a1.513,1.513,0,0,1,.727.589c.033.066.206.349.047.349l-.029,0m-1.525-1.438c-.208.242-.017.658.122.866a3.073,3.073,0,0,0,1.264,1.177c.052.208.1.433.156.641a.419.419,0,0,0-.121.069c-.45.277-.295,1.056-.139,1.472a2.688,2.688,0,0,0,.641,1.057,1.064,1.064,0,0,0,.849.329c.5-.1.467-.814.4-1.229h.139c.121.242.433.831.693.8.346-.035-.1-1.091-.156-1.247a3.509,3.509,0,0,0-.692-1.16.168.168,0,0,0-.156,0c-.208.087-.086.571,0,.849a.429.429,0,0,1-.138-.017,2.194,2.194,0,0,0-.745-.8c-.052-.225-.1-.432-.156-.657a.384.384,0,0,0,.191-.087c.225-.259-.017-.745-.156-.969a3.448,3.448,0,0,0-1.49-1.2.934.934,0,0,0-.18-.019.413.413,0,0,0-.322.123m-2.7.572c-.156-.295.018-.52.347-.52a1.2,1.2,0,0,1,.953.554c.156.277.051.537-.295.554h-.036a1.164,1.164,0,0,1-.968-.59m-.848.156a2.3,2.3,0,0,0,2.164,1.247c.832-.069,1.074-.762.71-1.455a2.585,2.585,0,0,0-1.974-1.143c-.78.017-1.265.589-.9,1.351m-7.949-.71c0-.26.433-.52.641-.606.121-.052.624-.173.658.07.035.26-.45.536-.658.623a1.182,1.182,0,0,1-.388.074c-.136,0-.252-.038-.252-.161m1.073-1.818a3.163,3.163,0,0,1-.5.242,1.884,1.884,0,0,1-.329.1,4.185,4.185,0,0,1,.485-.242c.052-.018.208-.069.346-.1m-.381-.139a4.257,4.257,0,0,0-1.212.727l-.017.018a.189.189,0,0,0,0,.138c.1.19.52.087.762.017,0,.053-.017.1-.017.156-.4.225-.969.675-1,1.16a.584.584,0,0,0,.086.295c.277.468,1.056.311,1.472.156a2.707,2.707,0,0,0,1.056-.658,1,1,0,0,0,.329-.831c-.1-.485-.762-.485-1.16-.416v-.156c.26-.1.935-.45.9-.727-.01-.094-.1-.129-.23-.129a3.576,3.576,0,0,0-.965.25m2.962.78c-.087-.208.415-.364.536-.381.208-.035.745-.017.866.208s-.381.364-.519.4a1.608,1.608,0,0,1-.237.016c-.253,0-.57-.051-.646-.241m4.658-.381a1.434,1.434,0,0,1-.918-.347c-.121-.173.225-.173.312-.173a1.59,1.59,0,0,1,.866.346c.133.147-.02.181-.153.181a.757.757,0,0,1-.106-.007m-4.191-.953a2.129,2.129,0,0,1-.363.087,4.281,4.281,0,0,1-.537.035c.121-.035.311-.069.363-.087a4.071,4.071,0,0,1,.537-.035m-.641-.19c-.138.035-1.23.19-1.108.5.1.259.866.208,1.16.173.035.052.052.087.087.139-.4.139-.97.468-.814.935a.984.984,0,0,0,.71.554,2.673,2.673,0,0,0,1.23.051c.433-.069,1.178-.329,1.212-.865v-.087c.311-.087.623-.156.935-.225a2.932,2.932,0,0,0,1.68.537c.259.017.727-.017.831-.329a.537.537,0,0,0-.173-.485,3.368,3.368,0,0,0-1.749-.692c-.277,0-.831.017-.935.346a.294.294,0,0,0,0,.173c-.312.069-.624.138-.918.226a2.441,2.441,0,0,0-1.212-.278.668.668,0,0,0-.069-.121c.243-.069.641-.191.624-.4a.174.174,0,0,0-.07-.121l-.017-.017a1.318,1.318,0,0,0-.505-.063c-.336,0-.73.036-.9.046" transform="translate(-607.215 -608.539)" fill="none"/>
    </clipPath>
  </defs>
  <g id="Group_193908" data-name="Group 193908" transform="translate(-91 -1)">
    <rect id="Rectangle_151844" data-name="Rectangle 151844" width="32" height="32" rx="4" transform="translate(91 1)" fill="#b3b3b3"/>
    <g id="Mask_Group_66" data-name="Mask Group 66" clip-path="url(#clip-path-2)">
      <g id="Group_193916" data-name="Group 193916" transform="translate(78.902 -11.098)">
        <rect id="Rectangle_151849" data-name="Rectangle 151849" width="56" height="56" transform="translate(0.098 0.098)" fill="#000038"/>
        <g id="Group_193915" data-name="Group 193915" transform="translate(17.061 17.099)">
          <g id="Group_193914" data-name="Group 193914" clip-path="url(#clip-path-3)">
            <path id="Path_193103" data-name="Path 193103" d="M612.66,1375.363l-.017-.52,22.167-.416.017.519" transform="translate(-612.49 -1352.908)" fill="#00e6cb" fill-rule="evenodd"/>
            <path id="Path_193104" data-name="Path 193104" d="M612.643,1371.885v-.121l22.167-.416.017.121" transform="translate(-612.49 -1349.915)" fill="#00e6cb" fill-rule="evenodd"/>
            <path id="Path_193105" data-name="Path 193105" d="M612.643,1368.807v-.121l22.167-.416v.121" transform="translate(-612.49 -1346.923)" fill="#00e6cb" fill-rule="evenodd"/>
            <path id="Path_193106" data-name="Path 193106" d="M612.643,1365.729v-.121l22.167-.416v.139" transform="translate(-612.49 -1343.932)" fill="#00e5cc" fill-rule="evenodd"/>
            <path id="Path_193107" data-name="Path 193107" d="M612.643,1363.265v-.138l22.167-.4v.121" transform="translate(-612.49 -1341.538)" fill="#00e5cc" fill-rule="evenodd"/>
            <path id="Path_193108" data-name="Path 193108" d="M612.643,1360.185v-.121l22.167-.415v.121" transform="translate(-612.49 -1338.544)" fill="#00e5cc" fill-rule="evenodd"/>
            <path id="Path_193109" data-name="Path 193109" d="M612.643,1357.086v-.121l22.167-.416v.122" transform="translate(-612.49 -1335.532)" fill="#00e5cc" fill-rule="evenodd"/>
            <path id="Path_193110" data-name="Path 193110" d="M612.643,1354.008v-.121l22.167-.416v.121" transform="translate(-612.49 -1332.54)" fill="#00e4cc" fill-rule="evenodd"/>
            <path id="Path_193111" data-name="Path 193111" d="M612.045,1351.526l-.017-.121,22.184-.4v.121" transform="translate(-611.892 -1330.145)" fill="#00e4cc" fill-rule="evenodd"/>
            <path id="Path_193112" data-name="Path 193112" d="M612.045,1348.465l-.017-.121,22.184-.416v.121" transform="translate(-611.892 -1327.153)" fill="#00e4cd" fill-rule="evenodd"/>
            <path id="Path_193113" data-name="Path 193113" d="M612.027,1345.387v-.121l22.184-.416v.121" transform="translate(-611.892 -1324.161)" fill="#00e4cd" fill-rule="evenodd"/>
            <path id="Path_193114" data-name="Path 193114" d="M612.027,1342.307v-.122l22.166-.415.018.121" transform="translate(-611.892 -1321.168)" fill="#00e3cd" fill-rule="evenodd"/>
            <path id="Path_193115" data-name="Path 193115" d="M612.027,1339.228v-.121l22.166-.415.018.139" transform="translate(-611.892 -1318.176)" fill="#00e3cd" fill-rule="evenodd"/>
            <path id="Path_193116" data-name="Path 193116" d="M612.027,1336.765v-.139l22.166-.4v.121" transform="translate(-611.892 -1315.782)" fill="#00e3cd" fill-rule="evenodd"/>
            <path id="Path_193117" data-name="Path 193117" d="M612.027,1333.687v-.121l22.166-.415v.121" transform="translate(-611.892 -1312.791)" fill="#00e3cd" fill-rule="evenodd"/>
            <path id="Path_193118" data-name="Path 193118" d="M612.027,1330.586v-.121l22.166-.416v.122" transform="translate(-611.892 -1309.776)" fill="#00e2ce" fill-rule="evenodd"/>
            <path id="Path_193119" data-name="Path 193119" d="M612.027,1327.508v-.121l22.166-.416v.121" transform="translate(-611.892 -1306.785)" fill="#01e2ce" fill-rule="evenodd"/>
            <path id="Path_193120" data-name="Path 193120" d="M612.027,1324.43v-.121l22.166-.416v.138" transform="translate(-611.892 -1303.793)" fill="#01e2ce" fill-rule="evenodd"/>
            <path id="Path_193121" data-name="Path 193121" d="M612.027,1321.967v-.138l22.166-.4v.121" transform="translate(-611.892 -1301.4)" fill="#01e2ce" fill-rule="evenodd"/>
            <path id="Path_193122" data-name="Path 193122" d="M612.027,1318.887v-.121l22.166-.416v.121" transform="translate(-611.892 -1298.406)" fill="#01e1ce" fill-rule="evenodd"/>
            <path id="Path_193123" data-name="Path 193123" d="M611.428,1315.809l-.017-.122,22.183-.415v.121" transform="translate(-611.292 -1295.414)" fill="#01e1cf" fill-rule="evenodd"/>
            <path id="Path_193124" data-name="Path 193124" d="M611.41,1312.709v-.121l22.183-.416v.139" transform="translate(-611.292 -1292.402)" fill="#01e1cf" fill-rule="evenodd"/>
            <path id="Path_193125" data-name="Path 193125" d="M611.41,1310.229v-.121l22.183-.4v.122" transform="translate(-611.292 -1290.008)" fill="#01e1cf" fill-rule="evenodd"/>
            <path id="Path_193126" data-name="Path 193126" d="M611.41,1307.166v-.121l22.166-.416.017.121" transform="translate(-611.292 -1287.014)" fill="#01e0cf" fill-rule="evenodd"/>
            <path id="Path_193127" data-name="Path 193127" d="M611.41,1304.088v-.121l22.166-.416v.121" transform="translate(-611.292 -1284.023)" fill="#01e0cf" fill-rule="evenodd"/>
            <path id="Path_193128" data-name="Path 193128" d="M611.41,1301.01v-.121l22.166-.416v.121" transform="translate(-611.292 -1281.031)" fill="#01e0cf" fill-rule="evenodd"/>
            <path id="Path_193129" data-name="Path 193129" d="M611.41,1297.93v-.122l22.166-.415v.139" transform="translate(-611.292 -1278.038)" fill="#01e0d0" fill-rule="evenodd"/>
            <path id="Path_193130" data-name="Path 193130" d="M611.41,1295.467v-.139l22.166-.4v.121" transform="translate(-611.292 -1275.644)" fill="#01dfd0" fill-rule="evenodd"/>
            <path id="Path_193131" data-name="Path 193131" d="M611.41,1292.388v-.121l22.166-.415v.121" transform="translate(-611.292 -1272.652)" fill="#01dfd0" fill-rule="evenodd"/>
            <path id="Path_193132" data-name="Path 193132" d="M611.41,1289.308v-.121l22.166-.415v.121" transform="translate(-611.292 -1269.658)" fill="#01dfd0" fill-rule="evenodd"/>
            <path id="Path_193133" data-name="Path 193133" d="M611.41,1286.209v-.121l22.166-.416v.122" transform="translate(-611.292 -1266.647)" fill="#01dfd0" fill-rule="evenodd"/>
            <path id="Path_193134" data-name="Path 193134" d="M610.813,1283.729l-.017-.121,22.183-.4v.122" transform="translate(-610.695 -1264.253)" fill="#01ded0" fill-rule="evenodd"/>
            <path id="Path_193135" data-name="Path 193135" d="M610.795,1280.668v-.138l22.183-.4v.121" transform="translate(-610.694 -1261.261)" fill="#01ded1" fill-rule="evenodd"/>
            <path id="Path_193136" data-name="Path 193136" d="M610.795,1277.588v-.121l22.183-.416v.121" transform="translate(-610.694 -1258.268)" fill="#01ded1" fill-rule="evenodd"/>
            <path id="Path_193137" data-name="Path 193137" d="M610.795,1274.51v-.121l22.166-.416.017.121" transform="translate(-610.694 -1255.276)" fill="#01ded1" fill-rule="evenodd"/>
            <path id="Path_193138" data-name="Path 193138" d="M610.795,1271.432v-.122l22.166-.415v.138" transform="translate(-610.694 -1252.284)" fill="#01ddd1" fill-rule="evenodd"/>
            <path id="Path_193139" data-name="Path 193139" d="M610.795,1268.969v-.139l22.166-.4v.121" transform="translate(-610.694 -1249.891)" fill="#01ddd1" fill-rule="evenodd"/>
            <path id="Path_193140" data-name="Path 193140" d="M610.795,1265.867v-.121l22.166-.416v.122" transform="translate(-610.694 -1246.876)" fill="#01ddd2" fill-rule="evenodd"/>
            <path id="Path_193141" data-name="Path 193141" d="M610.795,1262.789v-.121l22.166-.416v.121" transform="translate(-610.694 -1243.885)" fill="#01ddd2" fill-rule="evenodd"/>
            <path id="Path_193142" data-name="Path 193142" d="M610.795,1259.711v-.121l22.166-.416v.121" transform="translate(-610.694 -1240.893)" fill="#01dcd2" fill-rule="evenodd"/>
            <path id="Path_193143" data-name="Path 193143" d="M610.795,1256.631v-.121l22.166-.416v.138" transform="translate(-610.694 -1237.899)" fill="#01dcd2" fill-rule="evenodd"/>
            <path id="Path_193144" data-name="Path 193144" d="M610.795,1254.168v-.138l22.166-.4v.121" transform="translate(-610.694 -1235.505)" fill="#01dcd2" fill-rule="evenodd"/>
            <path id="Path_193145" data-name="Path 193145" d="M610.2,1251.09l-.017-.122,22.183-.415v.121" transform="translate(-610.097 -1232.514)" fill="#01dcd2" fill-rule="evenodd"/>
            <path id="Path_193146" data-name="Path 193146" d="M610.2,1248.009l-.017-.121,22.183-.415v.121" transform="translate(-610.097 -1229.52)" fill="#01dbd3" fill-rule="evenodd"/>
            <path id="Path_193147" data-name="Path 193147" d="M610.18,1244.931v-.121l22.183-.415v.121" transform="translate(-610.096 -1226.528)" fill="#01dbd3" fill-rule="evenodd"/>
            <path id="Path_193148" data-name="Path 193148" d="M610.18,1242.45v-.121l22.166-.4.017.121" transform="translate(-610.096 -1224.135)" fill="#01dbd3" fill-rule="evenodd"/>
            <path id="Path_193149" data-name="Path 193149" d="M610.18,1239.369v-.121l22.166-.416.017.122" transform="translate(-610.096 -1221.123)" fill="#01dbd3" fill-rule="evenodd"/>
            <path id="Path_193150" data-name="Path 193150" d="M610.18,1236.289v-.121l22.166-.416v.121" transform="translate(-610.096 -1218.129)" fill="#01dad3" fill-rule="evenodd"/>
            <path id="Path_193151" data-name="Path 193151" d="M610.18,1233.211v-.121l22.166-.416v.121" transform="translate(-610.096 -1215.137)" fill="#02dad3" fill-rule="evenodd"/>
            <path id="Path_193152" data-name="Path 193152" d="M610.18,1230.133v-.121l22.166-.416v.139" transform="translate(-610.096 -1212.146)" fill="#02dad4" fill-rule="evenodd"/>
            <path id="Path_193153" data-name="Path 193153" d="M610.18,1227.67v-.139l22.166-.4v.121" transform="translate(-610.096 -1209.752)" fill="#02dad4" fill-rule="evenodd"/>
            <path id="Path_193154" data-name="Path 193154" d="M610.18,1224.59v-.122l22.166-.415v.121" transform="translate(-610.096 -1206.759)" fill="#02d9d4" fill-rule="evenodd"/>
            <path id="Path_193155" data-name="Path 193155" d="M610.18,1221.511v-.121l22.166-.415v.121" transform="translate(-610.096 -1203.767)" fill="#02d9d4" fill-rule="evenodd"/>
            <path id="Path_193156" data-name="Path 193156" d="M609.582,1218.412l-.017-.121,22.183-.416V1218" transform="translate(-609.499 -1200.754)" fill="#02d9d4" fill-rule="evenodd"/>
            <path id="Path_193157" data-name="Path 193157" d="M609.582,1215.332l-.017-.121,22.183-.416v.139" transform="translate(-609.499 -1197.761)" fill="#02d9d5" fill-rule="evenodd"/>
            <path id="Path_193158" data-name="Path 193158" d="M609.565,1212.869v-.138l22.183-.4v.121" transform="translate(-609.498 -1195.367)" fill="#02d8d5" fill-rule="evenodd"/>
            <path id="Path_193159" data-name="Path 193159" d="M609.565,1209.791v-.121l22.166-.416.017.121" transform="translate(-609.498 -1192.376)" fill="#02d8d5" fill-rule="evenodd"/>
            <path id="Path_193160" data-name="Path 193160" d="M609.565,1206.713v-.121l22.166-.416.017.121" transform="translate(-609.498 -1189.384)" fill="#02d8d5" fill-rule="evenodd"/>
            <path id="Path_193161" data-name="Path 193161" d="M609.565,1203.633v-.122l22.166-.415v.138" transform="translate(-609.498 -1186.39)" fill="#02d8d5" fill-rule="evenodd"/>
            <path id="Path_193162" data-name="Path 193162" d="M609.565,1201.169v-.139l22.166-.4v.121" transform="translate(-609.498 -1183.996)" fill="#02d7d5" fill-rule="evenodd"/>
            <path id="Path_193163" data-name="Path 193163" d="M609.565,1198.091v-.121l22.166-.415v.121" transform="translate(-609.498 -1181.005)" fill="#02d7d6" fill-rule="evenodd"/>
            <path id="Path_193164" data-name="Path 193164" d="M609.565,1194.992v-.121l22.166-.416v.122" transform="translate(-609.498 -1177.993)" fill="#02d7d6" fill-rule="evenodd"/>
            <path id="Path_193165" data-name="Path 193165" d="M609.565,1191.912v-.121l22.166-.416v.121" transform="translate(-609.498 -1174.999)" fill="#02d7d6" fill-rule="evenodd"/>
            <path id="Path_193166" data-name="Path 193166" d="M609.565,1188.834v-.121l22.166-.416v.138" transform="translate(-609.498 -1172.008)" fill="#02d6d6" fill-rule="evenodd"/>
            <path id="Path_193167" data-name="Path 193167" d="M609.565,1186.371v-.138l22.166-.4v.121" transform="translate(-609.498 -1169.614)" fill="#02d6d6" fill-rule="evenodd"/>
            <path id="Path_193168" data-name="Path 193168" d="M608.965,1183.291l-.017-.121,22.183-.416v.121" transform="translate(-608.899 -1166.62)" fill="#02d6d6" fill-rule="evenodd"/>
            <path id="Path_193169" data-name="Path 193169" d="M608.947,1180.213v-.122l22.184-.415v.121" transform="translate(-608.899 -1163.629)" fill="#02d6d7" fill-rule="evenodd"/>
            <path id="Path_193170" data-name="Path 193170" d="M608.947,1177.134v-.121l22.184-.415v.121" transform="translate(-608.899 -1160.637)" fill="#02d5d7" fill-rule="evenodd"/>
            <path id="Path_193171" data-name="Path 193171" d="M608.947,1174.633v-.121l22.166-.4.017.122" transform="translate(-608.899 -1158.222)" fill="#02d5d7" fill-rule="evenodd"/>
            <path id="Path_193172" data-name="Path 193172" d="M608.947,1171.57v-.138l22.166-.4v.122" transform="translate(-608.899 -1155.229)" fill="#02d5d7" fill-rule="evenodd"/>
            <path id="Path_193173" data-name="Path 193173" d="M608.947,1168.492v-.121l22.166-.416v.122" transform="translate(-608.899 -1152.237)" fill="#02d5d7" fill-rule="evenodd"/>
            <path id="Path_193174" data-name="Path 193174" d="M608.947,1165.414v-.121l22.166-.416V1165" transform="translate(-608.899 -1149.246)" fill="#02d4d8" fill-rule="evenodd"/>
            <path id="Path_193175" data-name="Path 193175" d="M608.947,1162.334v-.121l22.166-.416v.138" transform="translate(-608.899 -1146.252)" fill="#02d4d8" fill-rule="evenodd"/>
            <path id="Path_193176" data-name="Path 193176" d="M608.947,1159.871v-.138l22.166-.4v.121" transform="translate(-608.899 -1143.858)" fill="#02d4d8" fill-rule="evenodd"/>
            <path id="Path_193177" data-name="Path 193177" d="M608.947,1156.793v-.122l22.166-.415v.121" transform="translate(-608.899 -1140.867)" fill="#02d4d8" fill-rule="evenodd"/>
            <path id="Path_193178" data-name="Path 193178" d="M608.947,1153.715v-.122l22.166-.415v.121" transform="translate(-608.899 -1137.875)" fill="#02d3d8" fill-rule="evenodd"/>
            <path id="Path_193179" data-name="Path 193179" d="M608.349,1150.614l-.017-.121,22.183-.416v.122" transform="translate(-608.301 -1134.861)" fill="#02d3d8" fill-rule="evenodd"/>
            <path id="Path_193180" data-name="Path 193180" d="M608.332,1147.536v-.121l22.183-.416v.139" transform="translate(-608.301 -1131.869)" fill="#02d3d9" fill-rule="evenodd"/>
            <path id="Path_193181" data-name="Path 193181" d="M608.332,1145.072v-.138l22.183-.4v.121" transform="translate(-608.301 -1129.475)" fill="#02d3d9" fill-rule="evenodd"/>
            <path id="Path_193182" data-name="Path 193182" d="M608.332,1141.995v-.121l22.166-.416.017.121" transform="translate(-608.301 -1126.484)" fill="#02d2d9" fill-rule="evenodd"/>
            <path id="Path_193183" data-name="Path 193183" d="M608.332,1138.914v-.121l22.166-.416v.121" transform="translate(-608.301 -1123.49)" fill="#03d2d9" fill-rule="evenodd"/>
            <path id="Path_193184" data-name="Path 193184" d="M608.332,1135.836v-.122l22.166-.415v.138" transform="translate(-608.301 -1120.499)" fill="#03d2d9" fill-rule="evenodd"/>
            <path id="Path_193185" data-name="Path 193185" d="M608.332,1133.355v-.121l22.166-.4v.121" transform="translate(-608.301 -1118.104)" fill="#03d2d9" fill-rule="evenodd"/>
            <path id="Path_193186" data-name="Path 193186" d="M608.332,1130.292v-.121l22.166-.415v.121" transform="translate(-608.301 -1115.111)" fill="#03d1da" fill-rule="evenodd"/>
            <path id="Path_193187" data-name="Path 193187" d="M608.332,1127.214v-.121l22.166-.415v.121" transform="translate(-608.301 -1112.119)" fill="#03d1da" fill-rule="evenodd"/>
            <path id="Path_193188" data-name="Path 193188" d="M608.332,1124.115v-.121l22.166-.416v.122" transform="translate(-608.301 -1109.107)" fill="#03d1da" fill-rule="evenodd"/>
            <path id="Path_193189" data-name="Path 193189" d="M608.332,1121.035v-.121l22.166-.416v.139" transform="translate(-608.301 -1106.114)" fill="#03d1da" fill-rule="evenodd"/>
            <path id="Path_193190" data-name="Path 193190" d="M607.734,1118.573l-.017-.138,22.183-.4v.121" transform="translate(-607.703 -1103.72)" fill="#03d1da" fill-rule="evenodd"/>
            <path id="Path_193191" data-name="Path 193191" d="M607.734,1115.495l-.017-.121,22.183-.416v.121" transform="translate(-607.703 -1100.728)" fill="#03d0db" fill-rule="evenodd"/>
            <path id="Path_193192" data-name="Path 193192" d="M607.717,1112.416v-.121l22.184-.416V1112" transform="translate(-607.703 -1097.737)" fill="#03d0db" fill-rule="evenodd"/>
            <path id="Path_193193" data-name="Path 193193" d="M607.717,1109.336v-.122l22.166-.415.018.121" transform="translate(-607.703 -1094.743)" fill="#03d0db" fill-rule="evenodd"/>
            <path id="Path_193194" data-name="Path 193194" d="M607.717,1106.236v-.121l22.166-.416.018.139" transform="translate(-607.703 -1091.731)" fill="#03d0db" fill-rule="evenodd"/>
            <path id="Path_193195" data-name="Path 193195" d="M607.717,1103.774v-.138l22.166-.4v.122" transform="translate(-607.703 -1089.337)" fill="#03cfdb" fill-rule="evenodd"/>
            <path id="Path_193196" data-name="Path 193196" d="M607.717,1100.7v-.121l22.166-.416v.121" transform="translate(-607.703 -1086.345)" fill="#03cfdb" fill-rule="evenodd"/>
            <path id="Path_193197" data-name="Path 193197" d="M607.717,1097.616v-.121l22.166-.416v.121" transform="translate(-607.703 -1083.352)" fill="#03cfdc" fill-rule="evenodd"/>
            <path id="Path_193198" data-name="Path 193198" d="M607.717,1094.537v-.121l22.166-.416v.138" transform="translate(-607.703 -1080.36)" fill="#03cfdc" fill-rule="evenodd"/>
            <path id="Path_193199" data-name="Path 193199" d="M607.717,1092.074v-.139l22.166-.4v.121" transform="translate(-607.703 -1077.966)" fill="#03cedc" fill-rule="evenodd"/>
            <path id="Path_193200" data-name="Path 193200" d="M607.717,1088.995v-.122l22.166-.415v.121" transform="translate(-607.703 -1074.973)" fill="#03cedc" fill-rule="evenodd"/>
            <path id="Path_193201" data-name="Path 193201" d="M607.119,1085.915l-.017-.121,22.183-.415v.121" transform="translate(-607.105 -1071.981)" fill="#03cedc" fill-rule="evenodd"/>
            <path id="Path_193202" data-name="Path 193202" d="M607.119,1082.837l-.017-.121,22.183-.415v.121" transform="translate(-607.105 -1068.989)" fill="#03cedc" fill-rule="evenodd"/>
            <path id="Path_193203" data-name="Path 193203" d="M607.1,1079.739v-.121l22.183-.416v.139" transform="translate(-607.105 -1065.977)" fill="#03cddd" fill-rule="evenodd"/>
            <path id="Path_193204" data-name="Path 193204" d="M607.1,1077.274v-.139l22.166-.4.017.122" transform="translate(-607.105 -1063.581)" fill="#03cddd" fill-rule="evenodd"/>
            <path id="Path_193205" data-name="Path 193205" d="M607.1,1074.2v-.121l22.166-.416.017.121" transform="translate(-607.105 -1060.59)" fill="#03cddd" fill-rule="evenodd"/>
            <path id="Path_193206" data-name="Path 193206" d="M607.1,1071.117V1071l22.166-.416v.121" transform="translate(-607.105 -1057.598)" fill="#03cddd" fill-rule="evenodd"/>
            <path id="Path_193207" data-name="Path 193207" d="M607.1,1068.037v-.121l22.166-.416v.121" transform="translate(-607.105 -1054.604)" fill="#03ccdd" fill-rule="evenodd"/>
            <path id="Path_193208" data-name="Path 193208" d="M607.1,1065.557v-.122l22.166-.4v.121" transform="translate(-607.105 -1052.211)" fill="#03ccde" fill-rule="evenodd"/>
            <path id="Path_193209" data-name="Path 193209" d="M607.1,1062.5v-.139l22.166-.4v.121" transform="translate(-607.105 -1049.219)" fill="#03ccde" fill-rule="evenodd"/>
            <path id="Path_193210" data-name="Path 193210" d="M607.1,1059.4v-.121l22.166-.416v.122" transform="translate(-607.105 -1046.207)" fill="#03ccde" fill-rule="evenodd"/>
            <path id="Path_193211" data-name="Path 193211" d="M607.1,1056.317v-.121l22.166-.416v.122" transform="translate(-607.105 -1043.213)" fill="#03cbde" fill-rule="evenodd"/>
            <path id="Path_193212" data-name="Path 193212" d="M607.1,1053.239v-.121l22.166-.416v.139" transform="translate(-607.105 -1040.222)" fill="#03cbde" fill-rule="evenodd"/>
            <path id="Path_193213" data-name="Path 193213" d="M606.5,1050.776l-.017-.138,22.183-.4v.121" transform="translate(-606.505 -1037.828)" fill="#03cbde" fill-rule="evenodd"/>
            <path id="Path_193214" data-name="Path 193214" d="M606.484,1047.7v-.121l22.184-.416v.121" transform="translate(-606.505 -1034.836)" fill="#03cbdf" fill-rule="evenodd"/>
            <path id="Path_193215" data-name="Path 193215" d="M606.484,1044.617v-.122l22.184-.415v.121" transform="translate(-606.505 -1031.843)" fill="#04cadf" fill-rule="evenodd"/>
            <path id="Path_193216" data-name="Path 193216" d="M606.484,1041.539v-.122l22.166-.415.017.121" transform="translate(-606.505 -1028.851)" fill="#04cadf" fill-rule="evenodd"/>
            <path id="Path_193217" data-name="Path 193217" d="M606.484,1038.461v-.122l22.166-.415v.139" transform="translate(-606.505 -1025.86)" fill="#04cadf" fill-rule="evenodd"/>
            <path id="Path_193218" data-name="Path 193218" d="M606.484,1036v-.139l22.166-.4v.121" transform="translate(-606.505 -1023.463)" fill="#04cadf" fill-rule="evenodd"/>
            <path id="Path_193219" data-name="Path 193219" d="M606.484,1032.9v-.121l22.166-.416v.122" transform="translate(-606.505 -1020.451)" fill="#04c9df" fill-rule="evenodd"/>
            <path id="Path_193220" data-name="Path 193220" d="M606.484,1029.818v-.121l22.166-.416v.121" transform="translate(-606.505 -1017.46)" fill="#04c9e0" fill-rule="evenodd"/>
            <path id="Path_193221" data-name="Path 193221" d="M606.484,1026.74v-.121l22.166-.416v.139" transform="translate(-606.505 -1014.468)" fill="#04c9e0" fill-rule="evenodd"/>
            <path id="Path_193222" data-name="Path 193222" d="M606.484,1024.258v-.121l22.166-.4v.121" transform="translate(-606.505 -1012.072)" fill="#04c9e0" fill-rule="evenodd"/>
            <path id="Path_193223" data-name="Path 193223" d="M606.484,1021.2v-.121l22.166-.416v.121" transform="translate(-606.505 -1009.081)" fill="#04c8e0" fill-rule="evenodd"/>
            <path id="Path_193224" data-name="Path 193224" d="M605.887,1018.119l-.017-.122,22.183-.415v.121" transform="translate(-605.907 -1006.089)" fill="#04c8e0" fill-rule="evenodd"/>
            <path id="Path_193225" data-name="Path 193225" d="M605.869,1015.038v-.121l22.183-.415v.121" transform="translate(-605.907 -1003.095)" fill="#04c8e1" fill-rule="evenodd"/>
            <path id="Path_193226" data-name="Path 193226" d="M605.869,1011.96v-.121l22.183-.415v.138" transform="translate(-605.907 -1000.104)" fill="#04c8e1" fill-rule="evenodd"/>
            <path id="Path_193227" data-name="Path 193227" d="M605.869,1009.477v-.138l22.166-.4.017.121" transform="translate(-605.907 -997.689)" fill="#04c7e1" fill-rule="evenodd"/>
            <path id="Path_193228" data-name="Path 193228" d="M605.869,1006.4v-.121l22.166-.416v.121" transform="translate(-605.907 -994.698)" fill="#04c7e1" fill-rule="evenodd"/>
            <path id="Path_193229" data-name="Path 193229" d="M605.869,1003.319v-.121l22.166-.416v.121" transform="translate(-605.907 -991.704)" fill="#04c7e1" fill-rule="evenodd"/>
            <path id="Path_193230" data-name="Path 193230" d="M605.869,1000.24v-.121l22.166-.416v.121" transform="translate(-605.907 -988.713)" fill="#04c7e1" fill-rule="evenodd"/>
            <path id="Path_193231" data-name="Path 193231" d="M605.869,997.162v-.121l22.166-.416v.138" transform="translate(-605.907 -985.721)" fill="#04c6e2" fill-rule="evenodd"/>
            <path id="Path_193232" data-name="Path 193232" d="M605.869,994.7v-.138l22.166-.4v.121" transform="translate(-605.907 -983.327)" fill="#04c6e2" fill-rule="evenodd"/>
            <path id="Path_193233" data-name="Path 193233" d="M605.869,991.618V991.5l22.166-.415v.121" transform="translate(-605.907 -980.333)" fill="#04c6e2" fill-rule="evenodd"/>
            <path id="Path_193234" data-name="Path 193234" d="M605.869,988.52V988.4l22.166-.416v.122" transform="translate(-605.907 -977.321)" fill="#04c6e2" fill-rule="evenodd"/>
            <path id="Path_193235" data-name="Path 193235" d="M605.271,985.442l-.017-.121,22.183-.416v.139" transform="translate(-605.309 -974.33)" fill="#04c5e2" fill-rule="evenodd"/>
            <path id="Path_193236" data-name="Path 193236" d="M605.271,982.979l-.017-.138,22.183-.4v.121" transform="translate(-605.309 -971.936)" fill="#04c5e2" fill-rule="evenodd"/>
            <path id="Path_193237" data-name="Path 193237" d="M605.254,979.9v-.121l22.183-.416v.121" transform="translate(-605.309 -968.942)" fill="#04c5e3" fill-rule="evenodd"/>
            <path id="Path_193238" data-name="Path 193238" d="M605.254,976.82V976.7l22.166-.416.017.121" transform="translate(-605.309 -965.951)" fill="#04c5e3" fill-rule="evenodd"/>
            <path id="Path_193239" data-name="Path 193239" d="M605.254,973.741v-.122l22.166-.415.017.121" transform="translate(-605.309 -962.957)" fill="#04c4e3" fill-rule="evenodd"/>
            <path id="Path_193240" data-name="Path 193240" d="M605.254,970.641v-.121l22.166-.416v.139" transform="translate(-605.309 -959.945)" fill="#04c4e3" fill-rule="evenodd"/>
            <path id="Path_193241" data-name="Path 193241" d="M605.254,968.178v-.138l22.166-.4v.122" transform="translate(-605.309 -957.551)" fill="#04c4e3" fill-rule="evenodd"/>
            <path id="Path_193242" data-name="Path 193242" d="M605.254,965.12V965l22.166-.415v.12" transform="translate(-605.309 -954.58)" fill="#04c4e4" fill-rule="evenodd"/>
            <path id="Path_193243" data-name="Path 193243" d="M605.254,962.02V961.9l22.166-.416v.122" transform="translate(-605.309 -951.566)" fill="#04c3e4" fill-rule="evenodd"/>
            <path id="Path_193244" data-name="Path 193244" d="M605.254,958.942v-.121l22.166-.416v.121" transform="translate(-605.309 -948.574)" fill="#04c3e4" fill-rule="evenodd"/>
            <path id="Path_193245" data-name="Path 193245" d="M605.254,956.461v-.122l22.166-.4v.121" transform="translate(-605.309 -946.181)" fill="#04c3e4" fill-rule="evenodd"/>
            <path id="Path_193246" data-name="Path 193246" d="M605.254,953.4v-.122l22.166-.415v.121" transform="translate(-605.309 -943.189)" fill="#04c3e4" fill-rule="evenodd"/>
            <path id="Path_193247" data-name="Path 193247" d="M604.656,950.319l-.017-.12,22.183-.416v.121" transform="translate(-604.711 -940.195)" fill="#05c2e4" fill-rule="evenodd"/>
            <path id="Path_193248" data-name="Path 193248" d="M604.639,947.242v-.122l22.183-.415v.121" transform="translate(-604.711 -937.204)" fill="#05c2e5" fill-rule="evenodd"/>
            <path id="Path_193249" data-name="Path 193249" d="M604.639,944.143v-.121l22.166-.416.017.139" transform="translate(-604.711 -934.191)" fill="#05c2e5" fill-rule="evenodd"/>
            <path id="Path_193250" data-name="Path 193250" d="M604.639,941.68v-.138l22.166-.4.017.122" transform="translate(-604.711 -931.798)" fill="#05c2e5" fill-rule="evenodd"/>
            <path id="Path_193251" data-name="Path 193251" d="M604.639,938.6v-.121l22.166-.416v.121" transform="translate(-604.711 -928.804)" fill="#05c1e5" fill-rule="evenodd"/>
            <path id="Path_193252" data-name="Path 193252" d="M604.639,935.522V935.4l22.166-.416v.122" transform="translate(-604.711 -925.813)" fill="#05c1e5" fill-rule="evenodd"/>
            <path id="Path_193253" data-name="Path 193253" d="M604.639,932.444v-.121l22.166-.416v.121" transform="translate(-604.711 -922.821)" fill="#05c1e5" fill-rule="evenodd"/>
            <path id="Path_193254" data-name="Path 193254" d="M604.639,929.364v-.122l22.166-.415v.139" transform="translate(-604.711 -919.827)" fill="#05c1e6" fill-rule="evenodd"/>
            <path id="Path_193255" data-name="Path 193255" d="M604.639,926.9v-.138l22.166-.4v.121" transform="translate(-604.711 -917.434)" fill="#05c0e6" fill-rule="evenodd"/>
            <path id="Path_193256" data-name="Path 193256" d="M604.639,923.8v-.121l22.166-.416v.122" transform="translate(-604.711 -914.421)" fill="#05c0e6" fill-rule="evenodd"/>
            <path id="Path_193257" data-name="Path 193257" d="M604.639,920.742v-.122l22.166-.415v.121" transform="translate(-604.711 -911.448)" fill="#05c0e6" fill-rule="evenodd"/>
            <path id="Path_193258" data-name="Path 193258" d="M604.039,917.643l-.017-.121,22.183-.416v.138" transform="translate(-604.111 -908.436)" fill="#05c0e6" fill-rule="evenodd"/>
            <path id="Path_193259" data-name="Path 193259" d="M604.021,915.162v-.121l22.184-.4v.122" transform="translate(-604.111 -906.042)" fill="#05bfe7" fill-rule="evenodd"/>
            <path id="Path_193260" data-name="Path 193260" d="M604.021,912.1v-.121l22.184-.416v.121" transform="translate(-604.111 -903.051)" fill="#05bfe7" fill-rule="evenodd"/>
            <path id="Path_193261" data-name="Path 193261" d="M604.021,909.022V908.9l22.166-.415.017.121" transform="translate(-604.111 -900.057)" fill="#05bfe7" fill-rule="evenodd"/>
            <path id="Path_193262" data-name="Path 193262" d="M604.021,905.944v-.121l22.166-.416v.121" transform="translate(-604.111 -897.065)" fill="#05bfe7" fill-rule="evenodd"/>
            <path id="Path_193263" data-name="Path 193263" d="M604.021,902.865v-.122l22.166-.415v.138" transform="translate(-604.111 -894.074)" fill="#05bee7" fill-rule="evenodd"/>
            <path id="Path_193264" data-name="Path 193264" d="M604.021,900.4v-.139l22.166-.4v.121" transform="translate(-604.111 -891.68)" fill="#05bee7" fill-rule="evenodd"/>
            <path id="Path_193265" data-name="Path 193265" d="M604.021,897.3v-.121l22.166-.416v.122" transform="translate(-604.111 -888.666)" fill="#05bee8" fill-rule="evenodd"/>
            <path id="Path_193266" data-name="Path 193266" d="M604.021,894.243v-.121l22.166-.415v.12" transform="translate(-604.111 -885.694)" fill="#05bee8" fill-rule="evenodd"/>
            <path id="Path_193267" data-name="Path 193267" d="M604.021,891.145v-.121l22.166-.416v.122" transform="translate(-604.111 -882.682)" fill="#05bde8" fill-rule="evenodd"/>
            <path id="Path_193268" data-name="Path 193268" d="M604.021,888.664v-.121l22.166-.4v.121" transform="translate(-604.111 -880.289)" fill="#05bde8" fill-rule="evenodd"/>
            <path id="Path_193269" data-name="Path 193269" d="M603.424,885.6l-.017-.139,22.184-.4v.121" transform="translate(-603.513 -877.295)" fill="#05bde8" fill-rule="evenodd"/>
            <path id="Path_193270" data-name="Path 193270" d="M603.424,882.524l-.017-.122,22.184-.415v.121" transform="translate(-603.513 -874.303)" fill="#05bde8" fill-rule="evenodd"/>
            <path id="Path_193271" data-name="Path 193271" d="M603.406,879.445v-.121l22.184-.416v.121" transform="translate(-603.513 -871.311)" fill="#05bce9" fill-rule="evenodd"/>
            <path id="Path_193272" data-name="Path 193272" d="M603.406,876.366v-.122l22.166-.415.017.139" transform="translate(-603.513 -868.318)" fill="#05bce9" fill-rule="evenodd"/>
            <path id="Path_193273" data-name="Path 193273" d="M603.406,873.9v-.138l22.166-.4v.121" transform="translate(-603.513 -865.924)" fill="#05bce9" fill-rule="evenodd"/>
            <path id="Path_193274" data-name="Path 193274" d="M603.406,870.8v-.121l22.166-.416v.122" transform="translate(-603.513 -862.912)" fill="#05bce9" fill-rule="evenodd"/>
            <path id="Path_193275" data-name="Path 193275" d="M603.406,867.725V867.6l22.166-.416v.121" transform="translate(-603.513 -859.92)" fill="#05bce9" fill-rule="evenodd"/>
            <path id="Path_193276" data-name="Path 193276" d="M603.406,864.645v-.121l22.166-.416v.121" transform="translate(-603.513 -856.927)" fill="#05bbea" fill-rule="evenodd"/>
            <path id="Path_193277" data-name="Path 193277" d="M603.406,861.567v-.121l22.166-.416v.138" transform="translate(-603.513 -853.935)" fill="#05bbea" fill-rule="evenodd"/>
            <path id="Path_193278" data-name="Path 193278" d="M603.406,859.1v-.138l22.166-.4v.121" transform="translate(-603.513 -851.541)" fill="#05bbea" fill-rule="evenodd"/>
            <path id="Path_193279" data-name="Path 193279" d="M603.406,856.024V855.9l22.166-.415v.121" transform="translate(-603.513 -848.548)" fill="#06bbea" fill-rule="evenodd"/>
            <path id="Path_193280" data-name="Path 193280" d="M602.808,852.924l-.017-.121,22.183-.416v.122" transform="translate(-602.916 -845.536)" fill="#06baea" fill-rule="evenodd"/>
            <path id="Path_193281" data-name="Path 193281" d="M602.808,849.866l-.017-.121,22.183-.415v.12" transform="translate(-602.916 -842.564)" fill="#06baea" fill-rule="evenodd"/>
            <path id="Path_193282" data-name="Path 193282" d="M602.791,847.386v-.121l22.183-.4v.12" transform="translate(-602.915 -840.171)" fill="#06baeb" fill-rule="evenodd"/>
            <path id="Path_193283" data-name="Path 193283" d="M602.791,844.3v-.121l22.166-.416.017.122" transform="translate(-602.915 -837.157)" fill="#06baeb" fill-rule="evenodd"/>
            <path id="Path_193284" data-name="Path 193284" d="M602.791,841.225V841.1l22.166-.416.017.121" transform="translate(-602.915 -834.165)" fill="#06b9eb" fill-rule="evenodd"/>
            <path id="Path_193285" data-name="Path 193285" d="M602.791,838.147v-.122l22.166-.415v.121" transform="translate(-602.915 -831.174)" fill="#06b9eb" fill-rule="evenodd"/>
            <path id="Path_193286" data-name="Path 193286" d="M602.791,835.065v-.12l22.166-.416v.138" transform="translate(-602.915 -828.179)" fill="#06b9eb" fill-rule="evenodd"/>
            <path id="Path_193287" data-name="Path 193287" d="M602.791,832.582v-.139l22.166-.4v.122" transform="translate(-602.915 -825.765)" fill="#06b9eb" fill-rule="evenodd"/>
            <path id="Path_193288" data-name="Path 193288" d="M602.791,829.526V829.4l22.166-.415v.121" transform="translate(-602.915 -822.795)" fill="#06b8ec" fill-rule="evenodd"/>
            <path id="Path_193289" data-name="Path 193289" d="M602.791,826.426V826.3l22.166-.416v.122" transform="translate(-602.915 -819.782)" fill="#06b8ec" fill-rule="evenodd"/>
            <path id="Path_193290" data-name="Path 193290" d="M602.791,823.346v-.121l22.166-.416v.121" transform="translate(-602.915 -816.789)" fill="#06b8ec" fill-rule="evenodd"/>
            <path id="Path_193291" data-name="Path 193291" d="M602.791,820.268v-.121l22.166-.416v.138" transform="translate(-602.915 -813.797)" fill="#06b8ec" fill-rule="evenodd"/>
            <path id="Path_193292" data-name="Path 193292" d="M602.191,817.8l-.017-.139,22.184-.4v.121" transform="translate(-602.316 -811.403)" fill="#06b7ec" fill-rule="evenodd"/>
            <path id="Path_193293" data-name="Path 193293" d="M602.174,814.725V814.6l22.183-.416v.121" transform="translate(-602.316 -808.41)" fill="#06b7ed" fill-rule="evenodd"/>
            <path id="Path_193294" data-name="Path 193294" d="M602.174,811.647v-.122l22.183-.415v.121" transform="translate(-602.316 -805.418)" fill="#06b7ed" fill-rule="evenodd"/>
            <path id="Path_193295" data-name="Path 193295" d="M602.174,808.547v-.121l22.166-.416.017.139" transform="translate(-602.316 -802.406)" fill="#06b7ed" fill-rule="evenodd"/>
            <path id="Path_193296" data-name="Path 193296" d="M602.174,806.067v-.122l22.166-.4v.122" transform="translate(-602.316 -800.011)" fill="#06b6ed" fill-rule="evenodd"/>
            <path id="Path_193297" data-name="Path 193297" d="M602.174,803.024V802.9l22.166-.415v.12" transform="translate(-602.316 -797.039)" fill="#06b6ed" fill-rule="evenodd"/>
            <path id="Path_193298" data-name="Path 193298" d="M602.174,799.926V799.8l22.166-.416v.122" transform="translate(-602.316 -794.027)" fill="#06b6ed" fill-rule="evenodd"/>
            <path id="Path_193299" data-name="Path 193299" d="M602.174,796.848v-.121l22.166-.416v.121" transform="translate(-602.316 -791.035)" fill="#06b6ee" fill-rule="evenodd"/>
            <path id="Path_193300" data-name="Path 193300" d="M602.174,793.768v-.122l22.166-.415v.138" transform="translate(-602.316 -788.041)" fill="#06b5ee" fill-rule="evenodd"/>
            <path id="Path_193301" data-name="Path 193301" d="M602.174,791.3v-.138l22.166-.4v.121" transform="translate(-602.316 -785.648)" fill="#06b5ee" fill-rule="evenodd"/>
            <path id="Path_193302" data-name="Path 193302" d="M602.174,788.226v-.121l22.166-.416v.121" transform="translate(-602.316 -782.656)" fill="#06b5ee" fill-rule="evenodd"/>
            <path id="Path_193303" data-name="Path 193303" d="M601.576,785.149l-.017-.122,22.183-.415v.121" transform="translate(-601.718 -779.665)" fill="#06b5ee" fill-rule="evenodd"/>
            <path id="Path_193304" data-name="Path 193304" d="M601.559,782.047v-.121l22.184-.416v.122" transform="translate(-601.718 -776.65)" fill="#06b4ee" fill-rule="evenodd"/>
            <path id="Path_193305" data-name="Path 193305" d="M601.559,779.567v-.121l22.184-.4v.122" transform="translate(-601.718 -774.256)" fill="#06b4ef" fill-rule="evenodd"/>
            <path id="Path_193306" data-name="Path 193306" d="M601.559,776.506v-.139l22.166-.4.017.121" transform="translate(-601.718 -771.265)" fill="#06b4ef" fill-rule="evenodd"/>
            <path id="Path_193307" data-name="Path 193307" d="M601.559,773.428v-.121l22.166-.416v.121" transform="translate(-601.718 -768.273)" fill="#06b4ef" fill-rule="evenodd"/>
            <path id="Path_193308" data-name="Path 193308" d="M601.559,770.348v-.121l22.166-.416v.121" transform="translate(-601.718 -765.28)" fill="#06b3ef" fill-rule="evenodd"/>
            <path id="Path_193309" data-name="Path 193309" d="M601.559,767.27v-.122l22.166-.415v.138" transform="translate(-601.718 -762.288)" fill="#06b3ef" fill-rule="evenodd"/>
            <path id="Path_193310" data-name="Path 193310" d="M601.559,764.807v-.138l22.166-.4v.121" transform="translate(-601.718 -759.894)" fill="#06b3f0" fill-rule="evenodd"/>
            <path id="Path_193311" data-name="Path 193311" d="M601.559,761.707v-.121l22.166-.416v.122" transform="translate(-601.718 -756.882)" fill="#07b3f0" fill-rule="evenodd"/>
            <path id="Path_193312" data-name="Path 193312" d="M601.559,758.648v-.121l22.166-.415v.12" transform="translate(-601.718 -753.909)" fill="#07b2f0" fill-rule="evenodd"/>
            <path id="Path_193313" data-name="Path 193313" d="M601.559,755.549v-.121l22.166-.416v.122" transform="translate(-601.718 -750.897)" fill="#07b2f0" fill-rule="evenodd"/>
            <path id="Path_193314" data-name="Path 193314" d="M600.961,752.469l-.017-.121,22.184-.416v.139" transform="translate(-601.12 -747.903)" fill="#07b2f0" fill-rule="evenodd"/>
            <path id="Path_193315" data-name="Path 193315" d="M600.961,750.006l-.017-.138,22.184-.4v.121" transform="translate(-601.12 -745.509)" fill="#07b2f0" fill-rule="evenodd"/>
            <path id="Path_193316" data-name="Path 193316" d="M600.943,746.928v-.122l22.184-.415v.121" transform="translate(-601.12 -742.518)" fill="#07b1f1" fill-rule="evenodd"/>
            <path id="Path_193317" data-name="Path 193317" d="M600.943,743.849v-.12l22.166-.416.017.121" transform="translate(-601.12 -739.526)" fill="#07b1f1" fill-rule="evenodd"/>
            <path id="Path_193318" data-name="Path 193318" d="M600.943,740.77v-.122l22.166-.415.017.121" transform="translate(-601.12 -736.532)" fill="#07b1f1" fill-rule="evenodd"/>
            <path id="Path_193319" data-name="Path 193319" d="M600.943,738.288v-.121l22.166-.4v.121" transform="translate(-601.12 -734.138)" fill="#07b1f1" fill-rule="evenodd"/>
            <path id="Path_193320" data-name="Path 193320" d="M600.943,735.207v-.121l22.166-.416v.122" transform="translate(-601.12 -731.127)" fill="#07b0f1" fill-rule="evenodd"/>
            <path id="Path_193321" data-name="Path 193321" d="M600.943,732.129v-.121l22.166-.416v.121" transform="translate(-601.12 -728.135)" fill="#07b0f1" fill-rule="evenodd"/>
            <path id="Path_193322" data-name="Path 193322" d="M600.943,729.049v-.121l22.166-.416v.122" transform="translate(-601.12 -725.141)" fill="#07b0f2" fill-rule="evenodd"/>
            <path id="Path_193323" data-name="Path 193323" d="M600.943,725.971v-.121l22.166-.416v.138" transform="translate(-601.12 -722.15)" fill="#07b0f2" fill-rule="evenodd"/>
            <path id="Path_193324" data-name="Path 193324" d="M600.943,723.508v-.139l22.166-.4v.121" transform="translate(-601.12 -719.756)" fill="#07aff2" fill-rule="evenodd"/>
            <path id="Path_193325" data-name="Path 193325" d="M600.324,720.43l-.018-.122,22.184-.415v.121" transform="translate(-600.5 -716.764)" fill="#07aff2" fill-rule="evenodd"/>
            <path id="Path_193326" data-name="Path 193326" d="M600.324,717.328l-.018-.121,22.184-.416v.122" transform="translate(-600.5 -713.75)" fill="#07aff2" fill-rule="evenodd"/>
            <path id="Path_193327" data-name="Path 193327" d="M600.307,714.272v-.122l22.184-.415v.121" transform="translate(-600.501 -710.779)" fill="#07aff3" fill-rule="evenodd"/>
            <path id="Path_193328" data-name="Path 193328" d="M600.307,711.172v-.121l22.167-.416.017.138" transform="translate(-600.501 -707.767)" fill="#07aef3" fill-rule="evenodd"/>
            <path id="Path_193329" data-name="Path 193329" d="M600.307,708.709v-.138l22.167-.4.017.122" transform="translate(-600.501 -705.373)" fill="#07aef3" fill-rule="evenodd"/>
            <path id="Path_193330" data-name="Path 193330" d="M600.307,705.629v-.121l22.167-.416v.121" transform="translate(-600.501 -702.379)" fill="#07aef3" fill-rule="evenodd"/>
            <path id="Path_193331" data-name="Path 193331" d="M600.307,702.551v-.122l22.167-.415v.121" transform="translate(-600.501 -699.388)" fill="#07aef3" fill-rule="evenodd"/>
            <path id="Path_193332" data-name="Path 193332" d="M600.307,699.471v-.121l22.167-.416v.138" transform="translate(-600.501 -696.394)" fill="#07adf3" fill-rule="evenodd"/>
            <path id="Path_193333" data-name="Path 193333" d="M600.307,697.007v-.138l22.167-.4v.121" transform="translate(-600.501 -694)" fill="#07adf4" fill-rule="evenodd"/>
            <path id="Path_193334" data-name="Path 193334" d="M600.307,693.93v-.122l22.167-.415v.121" transform="translate(-600.501 -691.009)" fill="#07adf4" fill-rule="evenodd"/>
            <path id="Path_193335" data-name="Path 193335" d="M600.307,690.83v-.121l22.167-.416v.122" transform="translate(-600.501 -687.996)" fill="#07adf4" fill-rule="evenodd"/>
            <path id="Path_193336" data-name="Path 193336" d="M600.307,687.771v-.121l22.167-.415v.12" transform="translate(-600.501 -685.023)" fill="#07acf4" fill-rule="evenodd"/>
            <path id="Path_193337" data-name="Path 193337" d="M599.727,684.672l-.017-.121,22.184-.416v.138" transform="translate(-599.921 -682.011)" fill="#07acf4" fill-rule="evenodd"/>
            <path id="Path_193338" data-name="Path 193338" d="M599.711,682.209v-.138l22.183-.4v.122" transform="translate(-599.922 -679.618)" fill="#07acf4" fill-rule="evenodd"/>
            <path id="Path_193339" data-name="Path 193339" d="M599.711,679.131v-.121l22.183-.416v.121" transform="translate(-599.922 -676.626)" fill="#07acf5" fill-rule="evenodd"/>
            <path id="Path_193340" data-name="Path 193340" d="M599.711,676.051v-.122l22.166-.415.017.121" transform="translate(-599.922 -673.632)" fill="#07abf5" fill-rule="evenodd"/>
            <path id="Path_193341" data-name="Path 193341" d="M599.711,672.972v-.12l22.166-.416v.121" transform="translate(-599.922 -670.64)" fill="#07abf5" fill-rule="evenodd"/>
            <path id="Path_193342" data-name="Path 193342" d="M599.711,670.471v-.122l22.166-.4v.122" transform="translate(-599.922 -668.225)" fill="#07abf5" fill-rule="evenodd"/>
            <path id="Path_193343" data-name="Path 193343" d="M599.711,667.43v-.139l22.166-.4v.121" transform="translate(-599.922 -665.253)" fill="#08abf5" fill-rule="evenodd"/>
            <path id="Path_193344" data-name="Path 193344" d="M599.711,664.33v-.121l22.166-.416v.122" transform="translate(-599.922 -662.241)" fill="#08aaf6" fill-rule="evenodd"/>
            <path id="Path_193345" data-name="Path 193345" d="M599.711,661.252v-.121l22.166-.416v.121" transform="translate(-599.922 -659.249)" fill="#08aaf6" fill-rule="evenodd"/>
            <path id="Path_193346" data-name="Path 193346" d="M599.711,658.174v-.121l22.166-.416v.138" transform="translate(-599.922 -656.258)" fill="#08aaf6" fill-rule="evenodd"/>
            <path id="Path_193347" data-name="Path 193347" d="M599.711,655.709v-.138l22.166-.4v.121" transform="translate(-599.922 -653.862)" fill="#08aaf6" fill-rule="evenodd"/>
            <path id="Path_193348" data-name="Path 193348" d="M599.092,652.631l-.018-.121,22.184-.416v.121" transform="translate(-599.303 -650.87)" fill="#08a9f6" fill-rule="evenodd"/>
            <path id="Path_193349" data-name="Path 193349" d="M599.074,649.553v-.122l22.184-.415v.121" transform="translate(-599.303 -647.879)" fill="#08a9f6" fill-rule="evenodd"/>
            <path id="Path_193350" data-name="Path 193350" d="M599.074,646.453v-.121l22.184-.416v.122" transform="translate(-599.303 -644.866)" fill="#08a9f7" fill-rule="evenodd"/>
            <path id="Path_193351" data-name="Path 193351" d="M599.074,643.394v-.121l22.167-.415.017.138" transform="translate(-599.303 -641.893)" fill="#08a9f7" fill-rule="evenodd"/>
            <path id="Path_193352" data-name="Path 193352" d="M599.074,640.931v-.138l22.167-.4v.12" transform="translate(-599.303 -639.499)" fill="#08a8f7" fill-rule="evenodd"/>
            <path id="Path_193353" data-name="Path 193353" d="M599.074,637.832v-.121l22.167-.416v.122" transform="translate(-599.303 -636.487)" fill="#08a8f7" fill-rule="evenodd"/>
            <path id="Path_193354" data-name="Path 193354" d="M599.074,634.752v-.121l22.167-.416v.121" transform="translate(-599.303 -633.494)" fill="#08a8f7" fill-rule="evenodd"/>
            <path id="Path_193355" data-name="Path 193355" d="M599.074,631.674v-.122l22.167-.415v.138" transform="translate(-599.303 -630.502)" fill="#08a8f7" fill-rule="evenodd"/>
            <path id="Path_193356" data-name="Path 193356" d="M599.074,629.193v-.12l22.167-.4v.121" transform="translate(-599.303 -628.108)" fill="#08a7f8" fill-rule="evenodd"/>
            <path id="Path_193357" data-name="Path 193357" d="M599.074,626.132v-.12l22.167-.416v.121" transform="translate(-599.303 -625.116)" fill="#08a7f8" fill-rule="evenodd"/>
            <path id="Path_193358" data-name="Path 193358" d="M598.5,600.27l-.017-.8,22.166-.4.017.78" transform="translate(-598.726 -599.34)" fill="#08a7f8" fill-rule="evenodd"/>
          </g>
        </g>
      </g>
    </g>
  </g>
</svg>
