<svg xmlns="http://www.w3.org/2000/svg" xmlns:xlink="http://www.w3.org/1999/xlink" width="32" height="32" viewBox="0 0 32 32">
  <defs>
    <clipPath id="clip-path">
      <rect id="Rectangle_151851" data-name="Rectangle 151851" width="32" height="32" rx="4" transform="translate(47 1)" fill="#dee2e6"/>
    </clipPath>
  </defs>
  <g id="Group_193917" data-name="Group 193917" transform="translate(-47 -1)">
    <g id="Group_193908" data-name="Group 193908" transform="translate(-44)">
      <rect id="Rectangle_151844" data-name="Rectangle 151844" width="32" height="32" rx="4" transform="translate(91 1)"/>
    </g>
    <path id="github-icon" d="M5.859,18.223a.146.146,0,0,1,0-.234.634.634,0,0,1,.586-.176,1.02,1.02,0,0,1,.41.117,2.628,2.628,0,0,1,.908.791,5.968,5.968,0,0,0,.791.85,2.179,2.179,0,0,0,2.871.176,1.755,1.755,0,0,1,.381-.7,1.774,1.774,0,0,1,.5-.41q.234-.117.82-.352a10.908,10.908,0,0,1-3.135-.674,5.313,5.313,0,0,1-1.9-1.26,4.916,4.916,0,0,1-1.143-2.754,7.053,7.053,0,0,1,.264-3.105,5.16,5.16,0,0,1,1-1.582,5.243,5.243,0,0,1,.176-3.34,6.085,6.085,0,0,1,3.4,1.289A12.837,12.837,0,0,1,17.871,6.8a11.012,11.012,0,0,1,1.26-.732,5.152,5.152,0,0,1,2.139-.5,6.319,6.319,0,0,1,.322,1.523A5.036,5.036,0,0,1,21.5,8.73a5.4,5.4,0,0,1,1.406,3.75,6.656,6.656,0,0,1-.645,3.105,4.951,4.951,0,0,1-2.285,2.051,8.144,8.144,0,0,1-2.93.645,3.88,3.88,0,0,1,1.2.85,2.579,2.579,0,0,1,.5,1.377v1.846l.059,1.787a2.2,2.2,0,0,0,.82.791.2.2,0,0,1,.117.264q-.059.176-.469.176a1.952,1.952,0,0,1-1.582-.7,1.342,1.342,0,0,1-.176-.7V21.152a.854.854,0,0,0-.234-.674,1.144,1.144,0,0,0-.469-.264v3.691a2.311,2.311,0,0,0,.234,1.289,1.38,1.38,0,0,1,.293.586q.059.059-.088.088a1.133,1.133,0,0,1-.5-.088A1.45,1.45,0,0,1,15.7,24.99a3.027,3.027,0,0,1-.293-1.318V20.039h-.762v3.633a3.221,3.221,0,0,1-.293,1.348,1.65,1.65,0,0,1-1.523.879q-.176-.059-.176-.117a4.969,4.969,0,0,0,.352-.586,2.719,2.719,0,0,0,.146-.469,3.4,3.4,0,0,0,.088-.82V20.215a.949.949,0,0,0-.439.264.927.927,0,0,0-.205.674v2.812a1.342,1.342,0,0,1-.176.7,1.851,1.851,0,0,1-1.582.7q-.41,0-.469-.176a.162.162,0,0,1,.029-.205,1.784,1.784,0,0,1,.264-.205,1.748,1.748,0,0,0,.234-.176,1.067,1.067,0,0,0,.352-.469,2.229,2.229,0,0,0,.088-1.23,5.913,5.913,0,0,1-.029-1.289A3.387,3.387,0,0,1,8.2,21.094a5.723,5.723,0,0,1-.937-1.348,5.908,5.908,0,0,0-1.406-1.523Z" transform="translate(48.645 1.268)" fill="#fff"/>
  </g>
</svg>
