<svg xmlns="http://www.w3.org/2000/svg" xmlns:xlink="http://www.w3.org/1999/xlink" width="32" height="33" viewBox="0 0 32 33">
  <defs>
    <clipPath id="clip-path">
      <rect id="Rectangle_151846" data-name="Rectangle 151846" width="32" height="32" rx="4" transform="translate(91 1)" fill="#dab92d"/>
    </clipPath>
    <clipPath id="clip-path-2">
      <rect id="Rectangle_151850" data-name="Rectangle 151850" width="32" height="32" rx="4" transform="translate(91 1)" fill="#b3b3b3"/>
    </clipPath>
  </defs>
  <g id="Group_193908" data-name="Group 193908" transform="translate(-91 0)">
    <rect id="Rectangle_151844" data-name="Rectangle 151844" width="32" height="32" rx="4" transform="translate(91 0)" fill="#dee2e6"/>
    <g id="jenkins" transform="translate(88.001 -6.998)">
      <path id="Path_193384" data-name="Path 193384" d="M31.636,57.727A9.121,9.121,0,1,1,22.518,48.4a9.225,9.225,0,0,1,9.119,9.327" transform="translate(-3.116 -35.201)" fill="#d33833"/>
      <path id="Path_193385" data-name="Path 193385" d="M12.508,66.53s-.66-9.727,8.3-10l-.625-1.042-4.863,1.633-1.39,1.6-1.216,2.327-.695,2.71.208,1.806" transform="translate(-1.853 -41.693)" fill="#ef3d3a"/>
      <path id="Path_193386" data-name="Path 193386" d="M13.156,48.633a9.2,9.2,0,0,0,0,12.795,8.692,8.692,0,0,0,12.491,0,9.2,9.2,0,0,0,0-12.795,8.693,8.693,0,0,0-12.491,0Zm-.4,13.191a9.761,9.761,0,0,1,0-13.586,9.258,9.258,0,0,1,13.3,0,9.761,9.761,0,0,1,0,13.586,9.258,9.258,0,0,1-13.3,0" transform="translate(0 -32.469)" fill="#231f20"/>
      <path id="Path_193387" data-name="Path 193387" d="M61.109,26.839l-1.39.208-1.876.208-1.216.035-1.181-.035-.9-.278-.8-.868-.625-1.772-.139-.382-.834-.278-.486-.8-.347-1.146.382-1.007.9-.313.729.347.347.764.417-.07.139-.174-.139-.8-.035-1.007.208-1.389-.008-.794.633-1.013L56,15.48l1.945-.834,2.154.313,1.876,1.355.868,1.39L63.4,18.71l.139,2.5-.417,2.154-.764,1.911-.729,1.007" transform="translate(-37.869 -4.261)" fill="#f0d6b7"/>
      <path id="Path_193388" data-name="Path 193388" d="M46.942,161.558l-4.967.208v.834l.417,2.918-.208.243-3.474-1.181-.243-.417-.347-3.925-.8-2.362-.174-.556,2.779-1.91.868-.347.764.938.66.591.764.243.347.1.417,1.806.313.382.8-.278-.556,1.077,3.022,1.424-.382.208" transform="translate(-24.883 -132.97)" fill="#335061"/>
      <path id="Path_193389" data-name="Path 193389" d="M54.369,24.161l.9-.313L56,24.2l.347.764.417-.07.1-.417-.208-.8.208-1.911L56.7,20.722l.625-.729,1.355-1.077-.382-.521-1.911.938-.8.625-.452.973-.695.938L54.23,22.98l.139,1.181" transform="translate(-40.542 -7.698)" fill="#6d6b6d"/>
      <path id="Path_193390" data-name="Path 193390" d="M55.792,22.18A3.908,3.908,0,0,1,58.4,20.269c2.084-.625.1-.452.1-.452l-2.258.869-.868.868-.382.695.8-.07M54.75,25.2A2.122,2.122,0,0,1,56.8,22.423l-.1-.417-1.911.452-.556,1.806.139,1.181.382-.243" transform="translate(-40.542 -8.981)" fill="#dcd9d8"/>
      <path id="Path_193391" data-name="Path 193391" d="M52.806,20.51l.455-.441a.293.293,0,0,1,.24.267,5.337,5.337,0,0,0,1.633,3.613c.136.108-1.112-.174-1.112-.174L52.91,22.039M59.2,19.85s.081-1.053.365-.972a.39.39,0,0,1,.284.365s-.689.445-.648.607m2.883-3.856s-.573.121-.625.625.625.1.729.069m-4.308-.66s-.764.1-.764.591.868.452,1.112.243m-5.072,1.424s-1.32-.8-1.459-.035-.452,1.32.208,2.119l-.452-.139-.417-1.077-.139-1.042.8-.834.9.07.521.417.035.521m.625-2.188a4.788,4.788,0,0,1,3.578-3.647c2.46-.486,3.752.1,4.238.66,0,0-2.188-2.605-4.273-1.806s-3.613,2.258-3.578,3.2a15.319,15.319,0,0,1,.035,1.6m8.059-2.64s-1.007-.035-1.042.869a.69.69,0,0,0,.07.278s.8-.9,1.285-.417" transform="translate(-37.486 -1.059)" fill="#f7e4cd"/>
      <path id="Path_193392" data-name="Path 193392" d="M107.259,44.54s-.173-1.386-1.355-.58c-.764.521-.695,1.251-.556,1.389s.1.419.207.227.071-.817.453-.991,1.008-.368,1.251-.045" transform="translate(-87.318 -30.9)" fill="#f7e4cd"/>
      <path id="Path_193393" data-name="Path 193393" d="M41.557,155.619l-3.265,1.459s1.355,5.384.66,7.052l-.486-.174-.035-2.05-.9-3.891-.382-1.077,3.4-2.293,1.007.973m.336,2.978.463.565v2.084H41.8s-.07-1.459-.07-1.633.07-.8.07-.8m.1,2.744-1.563.069.452.313,1.112.174" transform="translate(-24.882 -132.589)" fill="#49728b"/>
      <path id="Path_193394" data-name="Path 193394" d="M158.4,233.013l1.285-.035.313,3.2-1.32.174-.278-3.335" transform="translate(-136.024 -204.391)" fill="#335061"/>
      <path id="Path_193395" data-name="Path 193395" d="M162.563,155.865l1.945-.1s.8-2.015.8-2.119.695-2.918.695-2.918l-1.563-1.633-.313-.278-.834.834v3.231l-.729,2.987" transform="translate(-139.844 -127.242)" fill="#335061"/>
      <path id="Path_193396" data-name="Path 193396" d="M159.611,155.622l-1.216.243.174.973c.452.208,1.216-.348,1.216-.348m-.139-6.947,2.432,1.806.069-.834-1.841-1.7-.66.729" transform="translate(-136.023 -127.242)" fill="#49728b"/>
      <path id="Path_193397" data-name="Path 193397" d="M96.2,240.238l-.719-2.919-.358-2.153-.059-1.6,3.255-.173h2.025l-.184,3.648.313,2.814-.035.521-2.64.208-1.6-.347" transform="translate(-77.971 -204.772)" fill="#fff"/>
      <path id="Path_193398" data-name="Path 193398" d="M128.534,230.686a30.721,30.721,0,0,0,.347,6.183,6.636,6.636,0,0,1-2.571.834l2.918-.1.347-.208-.417-5.7-.1-1.216" transform="translate(-106.614 -202.099)" fill="#dcd9d8"/>
      <path id="Path_193399" data-name="Path 193399" d="M174.184,225.589l1.355-.382,2.571-.139.382-1.181-.695-2.049-.8-.1-1.112.347-1.067.521-.566-.1-.441.173" transform="translate(-150.155 -194.083)" fill="#fff"/>
      <path id="Path_193400" data-name="Path 193400" d="M177.979,232.529a5.082,5.082,0,0,1,1.042-.382l-.382-1.911.452-.174s.313,1.806.313,2.015c0,0,1.945.1,2.119.1a3.155,3.155,0,0,0,.313-1.633l.382,1.112.035.625-.556.834-.625.139-1.042-.035-.347-.452-1.216.174-.382.139" transform="translate(-153.974 -201.719)" fill="#dcd9d8"/>
      <path id="Path_193401" data-name="Path 193401" d="M144.418,190.728l-.764-1.945-.8-1.146s.174-.486.417-.486h.8l.764.278-.069,1.285-.348,2.015" transform="translate(-121.779 -162.383)" fill="#fff"/>
      <path id="Path_193402" data-name="Path 193402" d="M143.918,189.3a16.192,16.192,0,0,1-.973-2.154s.174-.417.417-.313.764.382.764.382v-.66l-1.181-.243-.8.1,1.355,3.2.278.035" transform="translate(-121.129 -161.614)" fill="#dcd9d8"/>
      <path id="Path_193403" data-name="Path 193403" d="M91.928,162.944l-.962-.1-.9-.278v.313l.441.487,1.39.625" transform="translate(-73.387 -139.844)" fill="#fff"/>
      <path id="Path_193404" data-name="Path 193404" d="M92.668,168.4a3.839,3.839,0,0,0,1.424.347l.034.416-.972-.208-.59-.417.1-.139" transform="translate(-75.681 -145.196)" fill="#dcd9d8"/>
      <path id="Path_193405" data-name="Path 193405" d="M159.22,167.4a6.6,6.6,0,0,1-1.588-.219,4.9,4.9,0,0,1,.02-.516,1.24,1.24,0,0,1,.544-.114.947.947,0,0,0-.6-.068.97.97,0,0,0-.1-.319c.331-.118,1.114-.894,1.554-.637.21.122.3.82.315,1.159a1.183,1.183,0,0,1-.14.714" transform="translate(-135.195 -142.517)" fill="#d33833"/>
      <path id="Path_193406" data-name="Path 193406" d="M159.22,167.4a6.6,6.6,0,0,1-1.588-.219,4.9,4.9,0,0,1,.02-.516,1.24,1.24,0,0,1,.544-.114.947.947,0,0,0-.6-.068.97.97,0,0,0-.1-.319c.331-.118,1.114-.894,1.554-.637.21.122.3.82.315,1.159a1.183,1.183,0,0,1-.14.714Z" transform="translate(-135.195 -142.517)" fill="none" stroke="#d33833" stroke-width="2.5"/>
      <path id="Path_193407" data-name="Path 193407" d="M116.1,168.12c0,.045,0,.09-.005.135-.184.121-.481.119-.683.221a1.774,1.774,0,0,1,.735.186l-.013.337a12,12,0,0,1-1.043.791,2.759,2.759,0,0,1-1.047.319c-.113-.026-.123-.167-.168-.3a4.273,4.273,0,0,1-.337-1.16c-.025-.538-.079-1.44.5-1.33a5.178,5.178,0,0,1,1.375.5,1.421,1.421,0,0,0,.686.3" transform="translate(-94.897 -144.198)" fill="#d33833"/>
      <path id="Path_193408" data-name="Path 193408" d="M116.1,168.12c0,.045,0,.09-.005.135-.184.121-.481.119-.683.221a1.774,1.774,0,0,1,.735.186l-.013.337a12,12,0,0,1-1.043.791,2.759,2.759,0,0,1-1.047.319c-.113-.026-.123-.167-.168-.3a4.273,4.273,0,0,1-.337-1.16c-.025-.538-.079-1.44.5-1.33a5.178,5.178,0,0,1,1.375.5A1.421,1.421,0,0,0,116.1,168.12Z" transform="translate(-94.897 -144.198)" fill="none" stroke="#d33833" stroke-width="2.5"/>
      <path id="Path_193409" data-name="Path 193409" d="M147.413,176.479a1.984,1.984,0,0,1-.088-.633c.782-.521.929.9.088.633" transform="translate(-125.871 -151.915)" fill="#d33833"/>
      <path id="Path_193410" data-name="Path 193410" d="M147.413,176.479a1.984,1.984,0,0,1-.088-.633c.782-.521.929.9.088.633Z" transform="translate(-125.871 -151.915)" fill="none" stroke="#d33833" stroke-width="2.5"/>
      <path id="Path_193411" data-name="Path 193411" d="M114.694,164.65s-.243-.347-.069-.452.347,0,.452-.174,0-.278.035-.486.209-.243.382-.278.66-.1.729.07l-.208-.625-.417-.139-1.32.764-.069.382v.764m-3.161,1.32q-.063-.813-.135-1.625c-.073-.809.194-.668.9-.668a1.849,1.849,0,0,1,.7.208c.189.387-.317.3.218.593.452.246,1.25-.149,1.067-.7-.1-.122-.532-.038-.686-.118l-.814-.422c-.345-.179-1.143-.44-1.512-.19-.933.634.059,2.219.392,2.881" transform="translate(-92.02 -139.849)" fill="#ef3d3a"/>
      <path id="Path_193412" data-name="Path 193412" d="M65.075,47.508c-.947-.221-1.417.4-1.7,1.036-.256-.062-.154-.411-.09-.588a1.608,1.608,0,0,1,1.41-1c.24.036.565.256.383.555m4.613,1.078.045,0A9.8,9.8,0,0,0,70.4,49.9c-.181.421-1.369.794-1.351.038.257-.112.7-.023.928-.166a2.578,2.578,0,0,1-.291-1.181m-4.128.012a3.971,3.971,0,0,0,.558,1.044c.13.127.383.281.257.633a.8.8,0,0,1-.367.3c-.451.133-1.5.028-1.146-.535.373.017.875.242,1.153-.028-.214-.342-.6-1.02-.455-1.419m3.959,3.782a3.76,3.76,0,0,1-2.55.8.755.755,0,0,1-.1-.971c.12.207.045.587.38.644.632.108,1.367-.386,1.821-.559.282-.475-.024-.65-.278-.955A3.785,3.785,0,0,1,67.6,49c.21-.152.228.232.258.3a8.568,8.568,0,0,0,1.452,1.99c.122.134.324.262.346.351.065.257-.168.566-.141.737m-8.955-.459c-.213-.122-.264-.657-.514-.672-.357-.022-.292.694-.291,1.113a1.308,1.308,0,0,1-.108-1.263c-.206-.1-.3.112-.412.186.147-1.066,1.56-.494,1.325.636m9.387.9a1.955,1.955,0,0,1-1.691,1.284,2.294,2.294,0,0,1,0-.607,4.872,4.872,0,0,0,1.69-.677m-4.445.39a5.87,5.87,0,0,0,2.484.321,2.819,2.819,0,0,1,.044.609c-1.034.052-2.256-.2-2.527-.93m-.113.58c.409,1.027,1.816.909,3,.881a.635.635,0,0,1-.306.348,3.009,3.009,0,0,1-1.956-.008A2.676,2.676,0,0,1,65.4,54.2c-.088-.114-.529-.4-.007-.405" transform="translate(-45.134 -33.868)" fill="#231f20"/>
      <path id="Path_193413" data-name="Path 193413" d="M165.349,191.943a20.939,20.939,0,0,1-1.509,2.393,11.527,11.527,0,0,0,.377-2.774.874.874,0,0,1,1.132.381" transform="translate(-141.014 -166.349)" fill="#81b0c4"/>
      <path id="Path_193414" data-name="Path 193414" d="M197.109,232.529c-.538.108-.915.63-1.44.6a1.717,1.717,0,0,1,1.44-.6m.237.841a7.861,7.861,0,0,1-1.4.081c.21-.321,1.021-.211,1.4-.081m.152.725c-.492.011-1.1,0-1.573-.038.277-.3,1.253-.11,1.573.038" transform="translate(-170.19 -203.979)" fill="#231f20"/>
      <path id="Path_193415" data-name="Path 193415" d="M164.315,275.06a11.608,11.608,0,0,1,.285,1.923,2.016,2.016,0,0,1-.794.172c-.026-.576-.1-1.456-.08-2,.179.012.444-.128.588-.09" transform="translate(-140.907 -242.958)" fill="#dcd9d8"/>
      <path id="Path_193416" data-name="Path 193416" d="M140.455,165.793c-.247.161-.458.363-.7.535a1.531,1.531,0,0,1-1.2-.339c.006-.024.045-.013.047-.043.564.251,1.28-.1,1.85-.153" transform="translate(-117.841 -142.807)" fill="#f0d6b7"/>
      <path id="Path_193417" data-name="Path 193417" d="M125.806,196.625c.155-.671.762-1.019,1.313-1.389a11.088,11.088,0,0,1,1.3,2.547,13.28,13.28,0,0,1-2.609-1.158" transform="translate(-106.151 -169.795)" fill="#81b0c4"/>
      <path id="Path_193418" data-name="Path 193418" d="M44.336,32.192c-.023.549.054,1.429.08,2a2.011,2.011,0,0,0,.794-.172,11.58,11.58,0,0,0-.285-1.923C44.781,32.064,44.516,32.2,44.336,32.192Zm-5.681-3.121A28.693,28.693,0,0,0,39.883,35.1a7.992,7.992,0,0,0,4.382.08c-.23-1.105-.13-2.451-.264-3.631-.1-.887-.05-1.779-.189-2.683A15.025,15.025,0,0,0,38.655,29.071Zm5.517-.191c-.013.95.043,1.887.115,2.838.365-.055.612-.091.951-.166a20.43,20.43,0,0,0-.321-2.756,2.255,2.255,0,0,0-.745.084Zm1.85-.153a2.276,2.276,0,0,0-.54,0c.078.774.266,1.629.333,2.442a2.263,2.263,0,0,0,.613-.156A4.919,4.919,0,0,0,46.022,28.726Zm2.8,2.56a1.2,1.2,0,0,0,.732-1.478,6.991,6.991,0,0,0-.477-1.615c-.143-.217-.532-.5-.843-.3-.505.323-1.395.417-1.763.809a13.052,13.052,0,0,1,.318,2.239,6.6,6.6,0,0,1,1.932.053,7.332,7.332,0,0,0-1.158.292,2.416,2.416,0,0,0,1.259,0Zm-5.044-3.3a11.091,11.091,0,0,0-1.3-2.547c-.551.37-1.158.717-1.313,1.389A13.279,13.279,0,0,0,43.78,27.987Zm.939-2.775a11.526,11.526,0,0,1-.377,2.774,20.936,20.936,0,0,0,1.509-2.393.874.874,0,0,0-1.132-.381Zm-1.065-.378c-.216-.023-.4.248-.68.131-.064.071-.123.148-.188.218a16.421,16.421,0,0,1,1.38,2.685,11.783,11.783,0,0,0,.284-2.688c-.353.022-.549-.319-.8-.346Zm-.685-.9a1.984,1.984,0,0,0,.088.633c.841.263.694-1.154-.088-.633Zm-.933-.306a5.179,5.179,0,0,0-1.375-.5c-.58-.111-.526.791-.5,1.33a4.268,4.268,0,0,0,.337,1.16c.045.132.055.273.168.3a2.761,2.761,0,0,0,1.047-.319,11.981,11.981,0,0,0,1.043-.791q.007-.169.013-.337a1.778,1.778,0,0,0-.735-.186c.2-.1.5-.1.683-.221,0-.045,0-.09.005-.134A1.417,1.417,0,0,1,42.037,23.625ZM38.576,23c-.3.305.843.721,1.208.744,0-.193.11-.375.088-.514a3.847,3.847,0,0,1-1.3-.23Zm3.705.143c0,.03-.04.019-.047.043a1.531,1.531,0,0,0,1.2.339c.238-.172.448-.374.7-.535C43.561,23.037,42.845,23.391,42.281,23.139Zm3.4,1.031c-.016-.339-.105-1.037-.315-1.159-.44-.257-1.222.519-1.554.637a.965.965,0,0,1,.1.319.946.946,0,0,1,.6.068,1.242,1.242,0,0,0-.544.114,4.9,4.9,0,0,0-.02.516,6.6,6.6,0,0,0,1.588.219,1.184,1.184,0,0,0,.14-.714Zm-7.612-.879c-.094-.067-.733-.9-.821-.864a13.753,13.753,0,0,0-3.2,1.99A17.451,17.451,0,0,1,35.4,31.148a8.523,8.523,0,0,0,3.414,1.279c-.166-1.172-.317-2.218-.411-3.322-.36-.152-.876.007-1.212-.047,0-.406.514-.178.557-.45.032-.206-.285-.222-.181-.547.263.1.4.307.682.386.257-.561,0-1.554.033-2.023.007-.088.044-.488.241-.418.175.062-.01,1.063.009,1.507a2.328,2.328,0,0,0,.116,1.061,39.5,39.5,0,0,1,4.286-.351,10.371,10.371,0,0,1-1.149-.517c-.233-.131-.966-.4-1.033-.625-.107-.352.281-.539.347-.841-.7.381-.835-.365-1-.893a6.944,6.944,0,0,1-.272-1.112,12.035,12.035,0,0,1-1.762-.945Zm7-.764c.963-.467,1.137,1.746.759,2.459.058.213.259.294.341.485-.537.963-1.135,1.862-1.683,2.813.408-.254.991-.045,1.471-.235.175-.069.3-.471.435-.793a17.248,17.248,0,0,0,.92-2.843,3.6,3.6,0,0,0,.12-.782c-.042-.306-.458-.534-.669-.723-.39-.35-.635-.658-1.041-.985-.165.243-.518.406-.653.6Zm-9.2-8.542a2.976,2.976,0,0,0-.307,2.125,1.233,1.233,0,0,1,1.92.929c.4-.011.148-.495.076-.807-.234-1.019.395-2.126.029-3.057a2.518,2.518,0,0,0-1.718.811Zm3.284-2.931a4.639,4.639,0,0,0-2.8,1.983c.331-.048.56-.215.886-.235a2.182,2.182,0,0,0,.426.016c.282-.07.52-.7.733-.939s.457-.328.628-.538c.11-.053.272-.049.278-.214-.048-.051-.1-.09-.155-.073Zm5.409.277c-1.078-.608-2.9-1.066-4.051-.494a5.585,5.585,0,0,0-2.6,2.193c.4.934-.118,1.79-.151,2.738-.018.5.238.945.257,1.494-.136.225-.553.253-.841.237-.1-.486-.267-1.032-.767-1.087a1.161,1.161,0,0,0-1.258,1.121c-.038.72.553,1.913,1.391,1.831.323-.032.4-.356.756-.353.191.381-.295.5-.345.774a2.2,2.2,0,0,0,.071.475,6.482,6.482,0,0,0,.825,1.921c.424.607,1.256.7,2.152.758.16-.345.749-.316,1.133-.226A3.8,3.8,0,0,1,39.885,21.7a2.55,2.55,0,0,1-.841-1.517,5.543,5.543,0,0,0,2.805,2.47,3.73,3.73,0,0,0,3.109-.734,3.573,3.573,0,0,0,.779-.959,8.133,8.133,0,0,0,1.225-4.922,5.464,5.464,0,0,0-.284-1.967c-.258-.519-1.133-.982-1.644-.513-.095-.5.426-.816,1.037-.635a5.776,5.776,0,0,0-1.513-1.588Zm2.009,16.629c.843-.419,2.417-1.128,2.946,0a9.577,9.577,0,0,1,.525,1.55c.143.606-.155,1.88-.778,2.084a3.7,3.7,0,0,1-1.855.036,1.012,1.012,0,0,1-.226-.3,2.561,2.561,0,0,0-1.291.22c.035.35-.2.406-.423.478-.165.652.329,1.5.211,2.1-.084.424-.606.489-.989.569a3.262,3.262,0,0,0,.043.631.956.956,0,0,1-.853.552,10.719,10.719,0,0,1-4.265-.211c-.329-.807-.588-1.788-.862-2.709a5.549,5.549,0,0,1-2.956-.9c-.3-.141-.723-.218-.837-.46a4.135,4.135,0,0,1-.092-1.106,16.8,16.8,0,0,0-.414-3.232c-.128-.5-.352-.935-.508-1.414a10.222,10.222,0,0,1-.462-1.435c-.1-.656.52-.692.915-.977.611-.439,1.09-.682,1.751-1.079A3.991,3.991,0,0,0,37,21.81c.133-.271-.229-.654-.326-.867a2.608,2.608,0,0,1-.255-.955,1.841,1.841,0,0,1-1.229-.79,3.027,3.027,0,0,1-.348-2.622c.029-.068.171-.2.192-.307a3.565,3.565,0,0,0-.085-.7c-.038-1.127.191-2.1.949-2.437.308-1.227,1.41-1.634,2.448-2.244a7.693,7.693,0,0,1,1.258-.536,6.289,6.289,0,0,1,5.332.521,7.16,7.16,0,0,1,1.768,1.957c.842,1.7.782,4.548.193,6.619a6.662,6.662,0,0,1-.354,1.021c-.112.233-.459.7-.417.906s.793.782.953.936c.289.279.839.649.883,1a3.543,3.543,0,0,1-.273,1.249c-.36,1.207-.712,2.322-1.121,3.4" transform="translate(-21.516 0)" fill="#231f20"/>
      <path id="Path_193419" data-name="Path 193419" d="M122.854,124.4c.046-.061.3-.153.649.016,0,0-.417.069-.382.765l-.174-.035s-.18-.63-.093-.746" transform="translate(-103.424 -104.792)" fill="#f7e4cd"/>
      <path id="Path_193420" data-name="Path 193420" d="M155.446,194.838a.191.191,0,1,1-.191-.191.191.191,0,0,1,.191.191m.191.886a.191.191,0,1,1-.191-.191.191.191,0,0,1,.191.191" transform="translate(-132.97 -169.255)" fill="#1d1919"/>
    </g>
  </g>
</svg>
