<svg xmlns="http://www.w3.org/2000/svg" width="32" height="32" viewBox="0 0 32 32">
  <g id="Group_193917" data-name="Group 193917" transform="translate(-47 -1)">
    <g id="Group_193908" data-name="Group 193908" transform="translate(-44)">
      <rect id="Rectangle_151844" data-name="Rectangle 151844" width="32" height="32" rx="4" transform="translate(91 1)" fill="#01410a"/>
    </g>
    <g id="mongodb-icon-1" transform="translate(49.188 5)">
      <path id="Path_193360" data-name="Path 193360" d="M15.894.087l.64,1.2a3.594,3.594,0,0,0,.484.6,16.8,16.8,0,0,1,1.5,1.7,14.768,14.768,0,0,1,2.34,4.719,11.6,11.6,0,0,1,.5,3.2,11.3,11.3,0,0,1-3.3,8.339,9.524,9.524,0,0,1-1.177,1.006c-.222,0-.327-.17-.418-.327a2.692,2.692,0,0,1-.327-.941,4.547,4.547,0,0,1-.1-1.189v-.183c-.018-.039-.214-18.038-.136-18.13Z" transform="translate(-1.766 -0.022)" fill="#599636"/>
      <path id="Path_193361" data-name="Path 193361" d="M14.128.025c-.026-.052-.052-.013-.079.013a1.208,1.208,0,0,1-.222.72,3.449,3.449,0,0,1-.575.575,12.527,12.527,0,0,0-2.81,3.582,14.388,14.388,0,0,0-1.62,5.856,19.483,19.483,0,0,0,.47,4.131,12.522,12.522,0,0,0,3.281,5.163,14.337,14.337,0,0,0,1.162.994c.118,0,.13-.1.157-.183a3.585,3.585,0,0,0,.118-.51l.262-1.96Z" transform="translate(0 0)" fill="#6cac48"/>
      <path id="Path_193362" data-name="Path 193362" d="M16.41,27.647a1.789,1.789,0,0,1,.327-.8.825.825,0,0,1-.366-.34,2.426,2.426,0,0,1-.195-.431,7.464,7.464,0,0,1-.274-1.686v-.34a1.63,1.63,0,0,0-.079.562,13.027,13.027,0,0,1-.235,1.765,1.57,1.57,0,0,1-.21.679.26.26,0,0,0,.013.091,7.8,7.8,0,0,1,.34,2.118v.262c0,.313-.013.247.247.352a1.146,1.146,0,0,1,.327.13c.079,0,.091-.065.091-.118l-.039-.431v-1.2a3.181,3.181,0,0,1,.052-.615Z" transform="translate(-1.641 -6.015)" fill="#c2bfbf"/>
    </g>
  </g>
</svg>
