<svg xmlns="http://www.w3.org/2000/svg" xmlns:xlink="http://www.w3.org/1999/xlink" width="32" height="32" viewBox="0 0 32 32">
  <defs>
    <clipPath id="clip-path">
      <rect id="Rectangle_151846" data-name="Rectangle 151846" width="32" height="32" rx="4" transform="translate(91 1)" fill="#dab92d"/>
    </clipPath>
    <clipPath id="clip-path-2">
      <rect id="Rectangle_151850" data-name="Rectangle 151850" width="32" height="32" rx="4" transform="translate(91 1)" fill="#b3b3b3"/>
    </clipPath>
  </defs>
  <g id="Group_193908" data-name="Group 193908" transform="translate(-91 -1)">
    <rect id="Rectangle_151844" data-name="Rectangle 151844" width="32" height="32" rx="4" transform="translate(91 1)"/>
    <g id="Mask_Group_66" data-name="Mask Group 66" clip-path="url(#clip-path-2)">
      <g id="postgresql" transform="translate(95.063 4.636)">
        <path id="Path_193366" data-name="Path 193366" d="M23.514,14.741a1.181,1.181,0,0,0-.98-.79,2.245,2.245,0,0,0-.782.043,7.032,7.032,0,0,1-1.205.158A23.25,23.25,0,0,0,23.008,8.3c.817-3.162.38-4.6-.13-5.254A7.062,7.062,0,0,0,17.183.365a10.091,10.091,0,0,0-2.96.415A11.021,11.021,0,0,0,12.492.621a5.627,5.627,0,0,0-3.015.743A13.748,13.748,0,0,0,7.348.83a6.6,6.6,0,0,0-4.988.792C.874,2.671.185,4.5.312,7.043a31.158,31.158,0,0,0,1.205,5.6,19.354,19.354,0,0,0,1.3,3.312,4.1,4.1,0,0,0,2.1,2.185A2.06,2.06,0,0,0,6.949,17.7a1.783,1.783,0,0,0,.429.369,2.853,2.853,0,0,0,.809.341,4.345,4.345,0,0,0,2.828-.168c.005.147.009.287.012.409.005.2.011.389.018.57a9.978,9.978,0,0,0,.378,2.83c.013.036.032.092.051.151a3.407,3.407,0,0,0,.849,1.5,2.533,2.533,0,0,0,1.792.666,4.026,4.026,0,0,0,.837-.093A3.936,3.936,0,0,0,17.6,22.74c.7-.99,1.033-2.481,1.094-4.83.008-.066.015-.13.022-.19l.015-.124.164.014.042,0a6.482,6.482,0,0,0,2.711-.47c.541-.251,2.275-1.166,1.866-2.4" transform="translate(0 0)"/>
        <path id="Path_193367" data-name="Path 193367" d="M32,25.028c-2.711.559-2.9-.359-2.9-.359,2.862-4.247,4.059-9.638,3.026-10.957-2.817-3.6-7.693-1.9-7.774-1.853l-.026,0a9.668,9.668,0,0,0-1.809-.188,4.467,4.467,0,0,0-2.863.857s-8.7-3.584-8.294,4.507c.086,1.721,2.467,13.023,5.307,9.609,1.038-1.248,2.041-2.3,2.041-2.3a2.632,2.632,0,0,0,1.719.439l.049-.041a1.894,1.894,0,0,0,.019.486c-.732.817-.517.961-1.979,1.262-1.48.3-.611.848-.043.99a3.007,3.007,0,0,0,3.356-1.09l-.043.172a4.887,4.887,0,0,1,.454,2.639,7.269,7.269,0,0,0,.17,2.546c.226.614.451,2,2.374,1.585a2.835,2.835,0,0,0,2.555-2.725c.082-1.058.268-.9.28-1.847l.149-.448c.172-1.434.027-1.9,1.017-1.682l.241.021a5.482,5.482,0,0,0,2.241-.377c1.2-.559,1.919-1.493.731-1.247h0" transform="translate(-10.044 -10.047)" fill="#336791"/>
        <path id="Path_193368" data-name="Path 193368" d="M101.426,79.716a.841.841,0,0,0-.577.082.212.212,0,0,0-.088.141.412.412,0,0,0,.1.27.755.755,0,0,0,.479.3.546.546,0,0,0,.077.005.621.621,0,0,0,.588-.4c.03-.213-.279-.355-.579-.4m8.093.007c-.023-.167-.32-.214-.6-.175s-.554.166-.532.334a.572.572,0,0,0,.531.352.506.506,0,0,0,.071,0,.685.685,0,0,0,.386-.211.426.426,0,0,0,.145-.294" transform="translate(-91.305 -71.953)" fill="#fff"/>
        <path id="Path_193369" data-name="Path 193369" d="M29.361,21.282c-.1-.313-.436-.413-.989-.3-1.641.339-2.229.1-2.422-.038a22.566,22.566,0,0,0,2.891-6.484,12.321,12.321,0,0,0,.428-2.788,3.011,3.011,0,0,0-.437-1.884,6.413,6.413,0,0,0-5.185-2.421,8.883,8.883,0,0,0-3,.472,7.472,7.472,0,0,0-1.686-.217,4.872,4.872,0,0,0-2.89.8A12.9,12.9,0,0,0,13.727,7.8a5.981,5.981,0,0,0-4.493.69c-1.287.912-1.882,2.542-1.767,4.846a30.419,30.419,0,0,0,1.177,5.442c.917,3,1.914,4.706,2.963,5.056a1.327,1.327,0,0,0,.42.07,1.757,1.757,0,0,0,1.34-.759q.893-1.071,1.847-2.09a2.976,2.976,0,0,0,1.329.357c0,.012,0,.024,0,.036q-.12.143-.234.289c-.321.408-.388.492-1.421.705-.294.061-1.075.222-1.086.769-.012.6.923.849,1.029.876a4.409,4.409,0,0,0,1.07.139,3.115,3.115,0,0,0,2.144-.8,20.292,20.292,0,0,0,.327,4.872,2.446,2.446,0,0,0,2.339,1.8,3.753,3.753,0,0,0,.786-.089,2.968,2.968,0,0,0,2.7-2.753c.152-.879.412-2.978.535-4.1a3.308,3.308,0,0,0,.951.117,5.661,5.661,0,0,0,2.159-.411c.61-.283,1.711-.978,1.511-1.582Zm-4.02-7.609a6.829,6.829,0,0,1-.1.949,8.767,8.767,0,0,0-.12,1.114A8.45,8.45,0,0,0,25.21,17a4.488,4.488,0,0,1-.2,2.559,3.327,3.327,0,0,1-.178-.365c-.05-.121-.158-.315-.308-.584-.583-1.046-1.949-3.5-1.25-4.5.208-.3.737-.6,2.064-.439ZM23.733,8.041A5.672,5.672,0,0,1,28.3,10.2c.835,1.067-.084,5.925-2.747,10.115l-.081-.1-.034-.042a4.734,4.734,0,0,0,.434-3.258,7.812,7.812,0,0,1-.084-1.158,8.2,8.2,0,0,1,.112-1.034,6.527,6.527,0,0,0,.105-1.279.53.53,0,0,0,.011-.18,7.183,7.183,0,0,0-1.638-3.082,7.38,7.38,0,0,0-2.6-1.958,8.782,8.782,0,0,1,1.954-.184ZM12.851,22.718c-.538.647-.909.523-1.031.482-.8-.265-1.719-1.947-2.533-4.614a30.143,30.143,0,0,1-1.149-5.279c-.1-2.058.4-3.492,1.483-4.263,1.769-1.254,4.677-.5,5.845-.123l-.051.049c-1.917,1.936-1.872,5.245-1.867,5.447,0,.078.006.189.015.34a13.688,13.688,0,0,1-.07,2.765,3.5,3.5,0,0,0,.922,2.927q.114.118.239.225c-.329.352-1.042,1.13-1.8,2.044ZM14.9,19.984a2.829,2.829,0,0,1-.741-2.369,14.31,14.31,0,0,0,.075-2.9c0-.081-.009-.152-.012-.208a3.689,3.689,0,0,1,2.5-.732,1.019,1.019,0,0,1,.787.879,6.141,6.141,0,0,1-.313,4.487c-.08.177-.155.344-.219.517l-.05.134a8.759,8.759,0,0,0-.316.95,2.39,2.39,0,0,1-1.715-.76Zm.1,3.455a1.485,1.485,0,0,1-.448-.193,2.189,2.189,0,0,1,.477-.142c1.216-.25,1.4-.427,1.813-.947.094-.119.2-.255.348-.419h0c.22-.246.32-.2.5-.129a.711.711,0,0,1,.35.45.5.5,0,0,1-.043.421A2.658,2.658,0,0,1,15,23.439Zm6.362,5.92A1.811,1.811,0,0,1,19,28.052a26.682,26.682,0,0,1-.256-5.874.336.336,0,0,0-.014-.107,1.407,1.407,0,0,0-.042-.2,1.362,1.362,0,0,0-.739-.886,1.042,1.042,0,0,0-.68-.082,8.217,8.217,0,0,1,.293-.876l.05-.134c.056-.152.127-.309.2-.475a6.794,6.794,0,0,0,.357-4.9,1.752,1.752,0,0,0-2.115-1.43,4.881,4.881,0,0,0-1.619.5c-.067.034-.128.067-.185.1A7.066,7.066,0,0,1,15.894,9.44,4.038,4.038,0,0,1,18.954,8.3a6.486,6.486,0,0,1,4.956,2.368,7.521,7.521,0,0,1,1.356,2.325c-1.254-.128-2.107.12-2.539.738-.94,1.344.514,3.953,1.214,5.207.128.23.239.428.274.513a4.656,4.656,0,0,0,.738,1.189c.066.082.13.162.179.232-.38.109-1.062.362-1,1.627-.05.634-.407,3.6-.588,4.654a2.3,2.3,0,0,1-2.184,2.21Zm6.208-7.1a4.9,4.9,0,0,1-1.655.344,2.076,2.076,0,0,1-1.111-.143c-.038-.788.255-.87.565-.957.049-.014.1-.027.142-.043a1.161,1.161,0,0,0,.094.069,4.109,4.109,0,0,0,2.905.116l.015,0a3.715,3.715,0,0,1-.956.617Z" transform="translate(-6.504 -6.364)" fill="#fff"/>
      </g>
    </g>
  </g>
</svg>
