<svg xmlns="http://www.w3.org/2000/svg" xmlns:xlink="http://www.w3.org/1999/xlink" width="32" height="32" viewBox="0 0 32 32">
  <defs>
    <linearGradient id="linear-gradient" x1="0.208" y1="0.785" x2="0.953" y2="0.063" gradientUnits="objectBoundingBox">
      <stop offset="0" stop-color="#aeaeae"/>
      <stop offset="1" stop-color="#ededee"/>
    </linearGradient>
    <linearGradient id="linear-gradient-2" x1="0.5" x2="0.772" y2="1" gradientUnits="objectBoundingBox">
      <stop offset="0" stop-color="#aeaeae"/>
      <stop offset="1" stop-color="#dcdee1"/>
    </linearGradient>
    <radialGradient id="radial-gradient" cx="0.442" cy="0.439" r="0.128" gradientUnits="objectBoundingBox">
      <stop offset="0" stop-color="#b8443f"/>
      <stop offset="1" stop-color="#a91d22"/>
    </radialGradient>
  </defs>
  <g id="Group_193908" data-name="Group 193908" transform="translate(-91 -1)">
    <g id="Rectangle_151844" data-name="Rectangle 151844" transform="translate(91 1)" fill="#fff" stroke="#dee2e6" stroke-width="1">
      <rect width="32" height="32" rx="4" stroke="none"/>
      <rect x="0.5" y="0.5" width="31" height="31" rx="3.5" fill="none"/>
    </g>
    <g id="microsoft-sql-server-1" transform="translate(-103.721 -98.498)">
      <path id="Path_193363" data-name="Path 193363" d="M213.839,196.4l-5.206,1.705-4.534,2-1.266.336c-.323.31-.659.62-1.033.93-.4.349-.775.659-1.059.891a8.585,8.585,0,0,0-1.033,1.02,4.518,4.518,0,0,0-.762,1.292,2.139,2.139,0,0,0,.31,1.951,6.821,6.821,0,0,0,2.842,2.131,18.353,18.353,0,0,0,2.506.84,32.967,32.967,0,0,0,5.335.762,5.516,5.516,0,0,0,.685,0,9.078,9.078,0,0,0,.5-.969,24.656,24.656,0,0,0,1.847-4.883,24.1,24.1,0,0,0,.478-3.384c.026-.388.039-1.666.013-2.093a17.325,17.325,0,0,0-.194-1.847c-.013-.078-.026-.155-.013-.155a6.572,6.572,0,0,1,.71-.207Zm-1.188.7a13.146,13.146,0,0,1,.207,1.976,1.553,1.553,0,0,1,0,.271c-.026,0-.659-.375-1.124-.659-.388-.245-1.137-.749-1.253-.84-.039-.026-.039-.026.284-.142C211.307,197.511,212.6,197.1,212.65,197.1Zm-2.661.878a1.356,1.356,0,0,1,.349.181,25.568,25.568,0,0,0,2.39,1.331c.142.065.155.039-.168.271a16.536,16.536,0,0,1-2.7,1.447,3.711,3.711,0,0,1-.362.155.6.6,0,0,1,.052-.22,12.235,12.235,0,0,0,.426-2.764C209.951,197.976,209.951,197.976,209.989,197.976Zm-.543.207a7.249,7.249,0,0,1-.026,1.15,9.727,9.727,0,0,1-.362,1.718,1.151,1.151,0,0,1-.09.271,6.6,6.6,0,0,1-.736-.71,5.153,5.153,0,0,1-.723-1.059,3.882,3.882,0,0,1-.22-.53C207.354,198.971,209.434,198.17,209.447,198.183Zm-2.571,1.008a.242.242,0,0,1,.065.142,4.972,4.972,0,0,0,.659,1.163,7.474,7.474,0,0,0,.9.982c.09.077.181.155.194.168s.026.026-.607.258c-.749.284-1.55.568-2.48.865-.22.077-.439.142-.659.22-.039.013-.026-.013.078-.168a20.9,20.9,0,0,0,1.55-3.139c.065-.168.129-.349.142-.388a.145.145,0,0,1,.09-.1c.026.013.052,0,.065,0Zm-.788.323c.013.013-.194.426-.388.814-.388.749-.8,1.473-1.356,2.364-.09.155-.181.3-.194.31s-.026.026-.09-.1a3.471,3.471,0,0,1-.3-.917,3.282,3.282,0,0,1,.026-1.175c.052-.245.052-.245.168-.3C204.435,200.262,206.063,199.5,206.088,199.513Zm6.782.284v.168a20.745,20.745,0,0,1-.233,2.958,1.556,1.556,0,0,1-.052.284s-.116-.026-.245-.065a9.533,9.533,0,0,1-1.808-.775,6.6,6.6,0,0,1-.917-.568l.362-.194a23.785,23.785,0,0,0,2.157-1.266c.245-.155.607-.426.685-.491Zm-9.753,1.163c.013,0,.013.026-.013.168a4.011,4.011,0,0,0-.039.426,2.948,2.948,0,0,0,.349,1.576c.078.155.142.3.142.3-.026.026-2.635.788-3.449,1.008-.245.065-.452.129-.478.129s-.026,0-.026-.065a4.133,4.133,0,0,1,1.15-1.976,5.285,5.285,0,0,1,1.292-.995c.4-.207,1.008-.555,1.072-.568Zm6.136,1.1s.1.052.207.116a11.77,11.77,0,0,0,3.01,1.175l.09.026-.129.065c-.53.3-2.248,1.008-4,1.666-.258.09-.5.194-.555.207a.223.223,0,0,1-.09.026s.065-.142.155-.31a20.263,20.263,0,0,0,1.24-2.816A1.384,1.384,0,0,0,209.253,202.058Zm-.62.207a1.724,1.724,0,0,1-.065.181A25.745,25.745,0,0,1,207.2,205.2c-.142.258-.271.465-.271.465s-.116-.065-.258-.155a7.8,7.8,0,0,1-2.054-1.757l-.065-.09.362-.1a25.842,25.842,0,0,0,3.462-1.188A2.432,2.432,0,0,1,208.633,202.265Zm3.888,1.356c0,.09-.194.9-.362,1.486-.142.491-.258.878-.478,1.563-.09.3-.181.543-.181.543a.129.129,0,0,1-.052-.013,15.71,15.71,0,0,1-3.2-.9c-.271-.116-.672-.284-.7-.31a3.752,3.752,0,0,1,.53-.245c1.8-.788,3.643-1.666,4.289-2.054A.767.767,0,0,1,212.521,203.621Zm-8.978.31c.013.013-.491.723-1.188,1.705-.245.349-.53.749-.633.891s-.271.388-.362.53l-.168.258-.181-.155a6.721,6.721,0,0,1-.736-.749,3.321,3.321,0,0,1-.659-1.266c-.039-.194-.039-.284,0-.3.065-.013,1.111-.258,2.093-.491.543-.129,1.175-.271,1.408-.336s.413-.09.426-.09Zm.5.194.129.142a7.588,7.588,0,0,0,1.847,1.511c.129.065.22.129.207.142s-2.428.878-3.552,1.253c-.62.22-1.137.4-1.15.4l-.077-.052-.065-.052.116-.168c.375-.53.84-1.124,1.847-2.338Zm3.139,2.248s.181.065.388.142a13.663,13.663,0,0,0,1.46.452,17.335,17.335,0,0,0,2.209.388c.09.013.129.013.116.026s-.607.207-1.033.349c-.672.207-2.739.827-4.431,1.3-.31.09-.581.168-.594.168a.293.293,0,0,1-.168-.039,1.738,1.738,0,0,1,.207-.258,24.988,24.988,0,0,0,1.6-2.144,3.732,3.732,0,0,1,.245-.388Zm-.7.013s-.271.452-.762,1.227c-.207.323-.439.7-.53.827s-.194.323-.258.439l-.116.207-.065-.013c-.142-.039-1.137-.388-1.4-.491a8.749,8.749,0,0,1-.917-.426,4.074,4.074,0,0,1-.672-.426c.013,0,.543-.155,1.2-.323,1.718-.465,2.674-.736,3.307-.943A1.141,1.141,0,0,1,206.489,206.385Zm4.9,1.15c.026.039-.62,1.808-.853,2.364-.052.129-.065.155-.1.155-.065,0-.995-.129-1.55-.22-.982-.155-2.622-.439-3.036-.53l-.09-.026.581-.129c1.266-.284,1.86-.439,2.48-.62a17,17,0,0,0,2.312-.891A2.432,2.432,0,0,1,211.385,207.535Z" transform="translate(0 -81.772)" fill="url(#linear-gradient)"/>
      <path id="Path_193364" data-name="Path 193364" d="M235.084,102.5a25.169,25.169,0,0,0-2.39.853,14.251,14.251,0,0,0-2.739,1.382,2.01,2.01,0,0,0-.53.53.459.459,0,0,0-.026.129l.53.5,1.253.4,2.984.53,3.41.581.039-.3h-.026l-.452-.065-.09-.155c-.465-.814-.982-1.834-1.279-2.519a11.994,11.994,0,0,1-.568-1.589C235.135,102.511,235.122,102.5,235.084,102.5Zm-.065.194a.875.875,0,0,1,.039.245,7.848,7.848,0,0,0,.388,1.653c.142.439.142.413-.026.362-.4-.116-2.2-.426-3.5-.607a2.053,2.053,0,0,1-.388-.065c-.013-.013.943-.517,1.356-.71.543-.245,2.028-.853,2.131-.878Zm-3.8,1.77.155.052a23.105,23.105,0,0,0,4.095.775l.245.026a2.337,2.337,0,0,1-.245.129c-.555.284-1.175.62-1.6.891a2.137,2.137,0,0,1-.258.142c-.013,0-.1-.013-.181-.026l-.155-.026-.388-.388c-.7-.672-1.24-1.188-1.447-1.4Zm-.155.116.555.7c.3.388.607.749.672.84s.116.155.116.155-.8-.142-1.214-.233a8.454,8.454,0,0,1-.865-.233l-.22-.065v-.052c0-.258.336-.659.9-1.059Zm4.715.943c.013,0,.039.039.078.142.129.3.555,1.085.659,1.24.026.052.09.052-.465-.039-1.331-.22-1.757-.284-1.757-.3s.039-.026.09-.065a8.277,8.277,0,0,0,1.2-.827,1.884,1.884,0,0,1,.194-.155Z" transform="translate(-26.618 0)" fill="url(#linear-gradient-2)"/>
      <path id="Path_193365" data-name="Path 193365" d="M215.954,123.4a.385.385,0,0,0,0,.349,1.54,1.54,0,0,0,.375.439s1.757,1.705,1.963,1.951a5.482,5.482,0,0,1,1.434,3.733,5.949,5.949,0,0,1-.62,2.829q-1.221,2.674-5.206,5.942l.388-.129a11.24,11.24,0,0,1,1.4-.827,48.986,48.986,0,0,1,6.5-2.906,81.541,81.541,0,0,1,13.189-3.539l.362-.052-.052-.09a11.156,11.156,0,0,0-.788-1.111,9.286,9.286,0,0,0-2.79-2.325,20.658,20.658,0,0,0-6.071-2.041c-.478-.09-1.524-.271-2.377-.4-1.808-.284-2.971-.478-4.25-.7-.465-.078-1.15-.194-1.6-.3a9.482,9.482,0,0,1-1.046-.284C216.445,123.852,216.044,123.736,215.954,123.4Zm1.02.995s.065.026.155.052c.155.052.349.116.568.168.168.052.349.09.517.142.233.065.439.116.439.116.026.026.426,1.3.555,1.783.052.181.09.349.09.349a1.335,1.335,0,0,1-.1-.155,8.417,8.417,0,0,0-2.028-2.3C217.052,124.459,216.974,124.395,216.974,124.395Zm1.938.53a1.218,1.218,0,0,1,.207.039c.672.155,1.873.375,2.635.5a1.029,1.029,0,0,1,.233.052c0,.013-.052.039-.1.065-.129.065-.659.375-.827.491a7.76,7.76,0,0,0-1.111.891l-.207.207a.743.743,0,0,1-.039-.155,12.515,12.515,0,0,0-.71-1.925c-.052-.078-.09-.168-.078-.168Zm3.4.646a1.463,1.463,0,0,1,.142.439,7.057,7.057,0,0,1,.194,1.808,2.811,2.811,0,0,1-.026.336l-.013.039-.207-.065c-.426-.129-1.111-.336-1.692-.5a5.172,5.172,0,0,1-.607-.181,8.55,8.55,0,0,1,.7-.7c.4-.349,1.486-1.188,1.511-1.175Zm.271.039c.013-.013,1.628.271,2.364.413.543.1,1.343.271,1.4.3.026.013-.065.052-.323.168a18.3,18.3,0,0,0-2.584,1.4c-.207.129-.375.245-.375.245s-.013-.116-.013-.245a5.619,5.619,0,0,0-.426-2.144C222.606,125.673,222.581,125.622,222.581,125.609Zm4.185.827a2.483,2.483,0,0,1-.09.517,10.058,10.058,0,0,1-.995,2.273,2.3,2.3,0,0,1-.168.271,1.172,1.172,0,0,1-.233-.129,12.169,12.169,0,0,0-1.537-.749,2.084,2.084,0,0,1-.3-.129,22.5,22.5,0,0,1,1.912-1.266C225.887,126.9,226.753,126.423,226.766,126.436Zm.3.052c.039,0,.749.194,1.124.31a20.283,20.283,0,0,1,2.674.982l.284.129-.207.052a28.817,28.817,0,0,0-4.534,1.408c-.116.052-.22.09-.22.09a.667.667,0,0,1,.078-.207,7.758,7.758,0,0,0,.762-2.622A1.323,1.323,0,0,0,227.063,126.487Zm-7.13,1.641a7.163,7.163,0,0,1,.853.207c.452.129,1.4.439,1.4.465,0,0-.1.09-.233.207-.517.426-1.008.878-1.6,1.46-.181.168-.323.31-.336.31s-.013-.026-.013-.052a9.317,9.317,0,0,0-.052-2.377A1.719,1.719,0,0,0,219.932,128.128Zm11.5.013c.013.013-.258.413-.413.646-.233.336-.581.788-1.369,1.77-.413.517-.878,1.111-1.033,1.3s-.284.362-.3.362-.052-.065-.116-.155a8.194,8.194,0,0,0-1.589-1.757,2.153,2.153,0,0,0-.3-.233.6.6,0,0,1-.077-.065c0-.013.672-.3,1.175-.5.891-.362,2.106-.8,3.01-1.072A9.159,9.159,0,0,1,231.429,128.141Zm.31.078a.7.7,0,0,1,.22.116,13.131,13.131,0,0,1,2.635,1.976c.207.207.723.736.71.749l-.388.026a39.429,39.429,0,0,0-5.813.969c-.142.026-.258.065-.271.065a3.349,3.349,0,0,1,.336-.336,10.037,10.037,0,0,0,2.39-3.178,3.026,3.026,0,0,1,.181-.388h0Zm-8.771.891c.052.013.568.258.956.439l.917.478s-.181.1-.413.22c-.736.375-1.369.723-2.041,1.124-.194.116-.349.207-.349.207s-.013-.013.09-.207a8.719,8.719,0,0,0,.8-2.17c.013-.052.026-.09.039-.09Zm-.5.1a6.031,6.031,0,0,1-.207.762,9.7,9.7,0,0,1-.7,1.6c-.065.116-.155.271-.207.362l-.1.155-.22-.207a3.081,3.081,0,0,0-.736-.543.748.748,0,0,1-.194-.116c0-.026.672-.646,1.188-1.085C221.663,129.82,222.451,129.2,222.464,129.213Zm3.126,1.279.194.129a14.749,14.749,0,0,1,1.356,1.008c.22.181.659.568.749.672l.052.052-.323.09c-1.808.5-3.191.943-4.818,1.537-.181.065-.336.116-.349.116s-.039.026.362-.349a17.756,17.756,0,0,0,2.648-3.036Zm-.827.207c.013.013-.53.762-.853,1.2-.388.517-1.072,1.369-1.537,1.925a5.169,5.169,0,0,1-.375.426c-.013,0-.013-.052-.013-.142a3.233,3.233,0,0,0-.336-1.421c-.09-.181-.1-.22-.09-.245.077-.065,1.214-.723,1.951-1.111C223.989,131.073,224.751,130.685,224.764,130.7Zm-4.973,1.214c.013,0,.1.052.207.1a5.524,5.524,0,0,1,.672.452c.013.013-.09.09-.233.194-.375.271-.943.7-1.266.956-.349.271-.362.284-.323.22a8.7,8.7,0,0,0,.53-.9c.116-.258.245-.555.336-.827A.484.484,0,0,1,219.79,131.913Zm1.33,1.046c.026,0,.039.026.155.194a2.865,2.865,0,0,1,.439,1.15l.013.077-.543.207c-.969.375-1.86.749-2.454,1.02-.168.077-.465.22-.659.31s-.349.168-.349.168.116-.09.271-.207a16.027,16.027,0,0,0,2.958-2.726A1.022,1.022,0,0,1,221.121,132.959Zm-.607.142a10.258,10.258,0,0,1-.736.84,13.4,13.4,0,0,1-2.441,1.976c-.116.078-.22.142-.233.155s.013-.026.413-.465c.258-.284.452-.517.685-.8a1.53,1.53,0,0,1,.388-.375C219.157,133.992,220.488,133.088,220.514,133.1Z" transform="translate(-13.121 -18.202)" fill="url(#radial-gradient)"/>
    </g>
  </g>
</svg>
